<svg xmlns="http://www.w3.org/2000/svg" xmlns:xlink="http://www.w3.org/1999/xlink" version="1.1" width="7500pt" height="5000pt" viewBox="0 0 7500 5000">
<defs>
<clipPath id="clip_0">
<path transform="matrix(1,0,0,-1,0,5000)" d="M0 5000H7500V0H0Z"/>
</clipPath>
</defs>
<g id="layer_1" data-name="Layer 1">
<g clip-path="url(#clip_0)">
<path transform="matrix(1,0,0,-1,2001.2218,2545.7464)" d="M0 0C-1.843-3.445-1.199-5.054 3.499-8.751 10.88-14.558 19.981-14.536 25.264-8.699 29.352-4.181 29.337-4.055 24.267 .051 17.26 5.728 3.049 5.696 0 0"/>
<path transform="matrix(1,0,0,-1,1418.1455,2774.5059)" d="M0 0H7.656 15.313L16.89 14.219C17.758 22.039 19.069 35.107 19.804 43.259L21.142 58.08 37.916 69.343C156.851 149.199 259.423 267.951 308.147 382.198 368.223 523.067 360.233 654.06 285.477 753.873 270.877 773.366 237.323 805.251 216.932 819.011 127.155 879.588 .646 897.871-124.693 868.383-198.038 851.126-281.226 809.436-337.383 761.791-379.114 726.387-393.987 699.953-379.212 687.451-374.793 683.712-366.422 682.169-366.422 685.092-366.422 685.9-368.049 688.357-370.038 690.557-373.405 694.277-373.38 695.16-369.668 703.391-365.098 713.525-344.271 733.914-319.169 752.826-174.179 862.067 23.69 891.5 164.542 824.778 192.696 811.441 214.2 795.951 236.1 773.234 285.426 722.066 309.495 657.046 309.531 574.866 309.587 451.181 249.297 315.562 143.743 201.932 123.951 180.626 91.535 149.416 70.003 130.934 47.966 112.021 25.147 94.441 24.052 95.536 23.592 95.997 25.615 127.848 28.548 166.318 34.903 249.667 41.297 348.713 45.846 434.239 53.994 587.44 59.483 791.448 55.715 801.064 53.485 806.756 46.425 810.973 41.981 809.268 37.999 807.74 36.754 799.928 32.815 751.761 26.042 668.946 11.009 369.487 6.66 230.792 4.868 173.641 2.78 115.711 2.019 102.058L.635 77.234-20.465 63.586C-107.687 7.167-225.557-41.711-285.481-46.31-305.455-47.843-311.428-44.457-312.617-30.927-313.44-21.56-316.438-18.678-325.405-18.627-331.186-18.594-331.42-19.03-331.42-29.74-331.42-47.236-323.366-55.185-299.7-61.046L-299.701-61.048C-291.105-63.176-257.783-60.386-237.354-55.826-176.674-42.282-96.028-9.057-17.501 34.749L0 44.511V22.256Z"/>
<path transform="matrix(1,0,0,-1,1703.2533,2615.904)" d="M0 0C6.738 0 9.717 1.924 21.173 13.673 49.225 42.442 88.577 112.337 110.922 173.083L121.078 200.691 131.846 196.6C137.768 194.348 146.541 192.508 151.341 192.508 158.146 192.508 160.096 191.665 160.192 188.68 162.84 107.062 167.855 81.8 184.495 66.279 196.092 55.462 215.687 51.665 227.742 57.898 237.379 62.882 256.06 84.956 271.088 109.118 278.608 121.207 284.761 132.152 284.761 133.436 284.761 136.913 275.467 139.778 271.286 137.59 269.29 136.544 259.21 125.42 248.888 112.87 230.002 89.908 216.088 76.566 211.028 76.566 201.924 76.566 195.352 103.582 193.735 147.663 193.028 166.914 191.547 186.11 190.443 190.321 186.221 206.424 177.321 211.994 152.148 214.289 127.8 216.508 126.666 217.824 131.877 237.807 139.629 267.535 136.901 279.738 121.519 284.15 105.995 288.602 98.167 275.38 97.591 243.729 97.282 226.753 95.861 219.728 87.857 195.602 65.807 129.134 26.222 52.046-3.651 17.4-11.413 8.397-12.661 5.807-10.493 3.195-9.035 1.437-4.313 0 0 0"/>
<path transform="matrix(1,0,0,-1,2502.5594,1782.9692)" d="M0 0C-9.448 .908-11.247 .402-14.354-4.032-18.831-10.426-15.671-16.241-4.653-21.881V-21.879C5.14-26.893 15.306-26.736 21.719-21.474 25.858-18.076 26.416-16.471 24.527-13.38 20.078-6.104 10.791-1.036 0 0"/>
<path transform="matrix(1,0,0,-1,2952.791,2840.8338)" d="M0 0C4.875 51.959 26.185 101.462 65.676 152.56 82.269 174.03 126.295 220.533 147.051 238.515L160.052 249.778 158.62 226.963C151.109 107.343 130.583 13.249 97.33-53.989 82.98-83.006 70.136-101.048 56.856-110.846 47.884-117.466 40.628-117.779 31.08-111.957 8.718-98.323-4.693-50.016 0 0M133.67 424.629C116.02 398.619 84.628 359.614 70.225 345.794V345.795C48.172 324.635 47.052 324.799 54.798 348.051 67.082 384.926 102.358 437.154 124.024 450.545 132.737 455.929 134.56 454.792 137.373 442.22 139.186 434.118 138.771 432.145 133.67 424.629M301.785 368.007C307.251 389.377 316.917 407.586 329.189 419.63L338.778 429.041 340.189 423.418C344.117 407.771 329.306 370.318 312.572 353.585V353.584C296.111 337.123 294.454 339.34 301.785 368.007M45.684-130.654C52.188-129.934 61.049-127.698 65.373-125.685 74.768-121.312 99.855-96.889 107.557-84.617 154.667-9.551 183.469 104.94 193.7 257.811L195.096 278.664 208.819 287.838C216.368 292.884 230.762 300.987 240.808 305.846L259.072 314.678 264.025 304.932C269.855 293.461 282.335 280.737 293.088 275.3 314.083 264.684 342.594 261.974 374.586 267.553 436.333 278.321 491.188 316.444 507.441 359.883 512.81 374.232 511.337 377.352 498.186 379.486 490.39 380.752 490.22 380.614 483.802 367.928 474.556 349.652 461.893 336.291 439.836 321.537 418.864 307.509 398.575 298.843 375.022 293.853 355.701 289.76 327.977 289.628 318.509 293.585 310.548 296.912 303.483 306.839 300.04 319.54L297.816 327.744H307.056C328.041 327.744 355.044 350.091 369.945 379.789 376.502 392.859 377.308 396.418 377.31 412.31 377.312 428.923 376.851 430.734 370.623 438.561 356.797 455.935 331.444 461.958 312.601 452.346 280.553 435.996 253.201 379.68 256.326 336.479L257.254 323.65 243.999 318.872C230.053 313.844 204.966 300.872 198.477 295.332 194.857 292.242 194.647 293.78 194.607 323.575 194.559 360.741 192.828 395.865 190.143 414.153 188.602 424.656 186.885 428.481 181.554 433.295 177.889 436.604 172.446 439.311 169.456 439.311 164.75 439.311 164.022 440.293 164.022 446.644 164.022 472.637 124.584 487.138 97.301 471.174 61.17 450.035 11.082 368.467 10.112 329.189L9.797 316.416-8.798 317.847C-19.024 318.635-39.697 320.682-54.737 322.398-69.777 324.113-86.512 325.544-91.927 325.571-109.58 325.666-108.93 327.648-83.993 349.76-53.291 376.984 2.092 434.252 7.589 444.46 11.552 451.817 11.651 453.064 8.683 458.274 .028 473.472-16.634 475.04-60.206 464.757-73.441 461.633-92.889 458.426-103.424 457.63-113.958 456.834-124.281 454.935-126.364 453.414-129.942 450.798-129.928 450.397-126.108 446.177-119.943 439.365-101.002 436.381-72.662 437.76-59.058 438.424-48.229 438.137-48.598 437.125-49.573 434.454-101.7 377.669-108.85 371.49-112.176 368.616-124.477 357.113-136.186 345.927-151.242 331.544-161.619 323.632-171.633 318.901-184.385 312.875-196.932 302.051-196.932 297.073-196.932 291.737-186.479 283.643-178.143 282.524-167.443 281.089-161.156 283.981-143.234 298.579L-130.38 309.05-102.95 309.102C-48.244 309.203 16.08 305.537 20.042 302.093 29.622 293.768 51.617 290.476 65.8 295.246 87.198 302.443 122.838 334.227 146.052 366.819L156.364 381.297 157.733 366.007C158.486 357.597 159.221 332.013 159.366 309.153L159.629 267.588 145.965 256.677C121.002 236.745 60.439 174.357 41.894 149.47 13.013 110.716-6.938 66.164-15.563 21.17-19.964-1.79-18.903-50.972-13.58-70.765-5.349-101.373 5.005-117.337 22.313-126.11L22.312-126.113C32.133-131.091 35.625-131.768 45.684-130.654"/>
<path transform="matrix(1,0,0,-1,2421.1566,1804.1306)" d="M0 0C0 12.43-20.18 19.66-30.821 11.044-35.746 7.056-35.777 6.802-32.029 1.083-29.915-2.145-26.026-5.656-23.389-6.718-12.237-11.211 0-7.696 0 0"/>
<path transform="matrix(1,0,0,-1,941.6082,2428.0853)" d="M0 0V0C-1.364-6.958-2.46-8.068-8.617-8.75-23.554-10.401-50.615-6.94-59.912-2.189-70.51 3.225-70.444 1.243-61.23 37.316-53.184 68.812-43.159 90.862-26.609 113.454-23.315 117.951-33.552 124.907-43.556 124.959-56.208 125.034-67.221 113.642-80.331 86.918-91.896 63.344-93.509 62.347-87.156 82.701-75.32 120.617-40.128 146.868-22.739 130.752-7.515 116.643 1.405 82.728 1.498 38.597 1.533 21.753 .86 4.384 0 0M-9.105-42.89C-19.28-80.704-32.289-106.955-50.301-126.019V-126.012C-56.269-132.329-61.886-137.497-62.784-137.497-66.007-137.497-71.276-120.119-73.821-101.094-76.33-82.344-75.243-28.271-72.199-20.337-71.214-17.769-69.356-17.26-65.142-18.397-50.716-22.292-40.547-23.568-22.939-23.646L-3.955-23.749ZM286.128-43.404C276.838-39.871 274.521-40.804 268.37-50.547 246.948-84.483 173.208-130.941 140.768-130.941 111.916-130.941 103.592-67.056 124.333-4.804 136.005 30.231 156.782 67.17 173.143 81.976 177.201 85.648 177.442 85.6 179.038 80.795 179.952 78.04 181.308 56.124 182.05 32.093 183.394-11.43 183.42-11.61 188.73-14.251 196.226-17.981 200.538-14.944 206.099-2.016 214.126 16.644 217.944 40.461 216.85 65.061 215.734 90.15 212.838 97.228 199.178 108.27 192.301 113.828 188.503 115.117 176.827 115.861 164.616 116.639 161.455 115.991 152.851 110.949 135.535 100.801 111.717 67.952 98.992 36.67 91.534 18.333 76.051 8.12 41.206-1.451L25.892-5.657 25.761 31.783C25.649 63.563 24.896 71.813 20.78 86.356 8.466 129.869-10.349 149.07-40.674 149.07-67.724 149.07-99.067 119.266-109.533 83.593-114.466 66.779-114.062 40.362-108.636 24.926-104.943 14.417-104.591 10.556-106.396 .37-110.59-23.313-112.806-66.263-110.91-87.189-106.973-130.673-98.1-151.077-80.205-157.802H-80.206C-78.138-158.579-75.075-159.026-71.551-159.183-71.621-159.41-65.068-159.446-61.723-159.23-58.786-159.041-52.548-158.733-44.111-155.213-27.33-148.21-8.181-122.494 3.596-93.752 10.518-76.858 19.407-46.245 21.561-31.876 23.036-22.044 23.495-21.5 32.154-19.338 48.019-15.376 68.737-8.449 77.766-4.086L86.517 .141 85.149-4.694C80.513-21.09 77.023-55.017 78.239-71.877 81.938-123.189 101.152-148.764 137.398-150.524 135.623-156.325 133.848-162.127 132.073-167.929 131.157-170.923 132.166-174.352 134.348-176.533 135.451-177.629 136.752-178.387 138.25-178.807 139.817-179.229 141.385-179.229 142.952-178.807 143.253-178.765 143.555-178.724 143.856-178.682 149.308-177.969 154.777-177.394 160.26-176.982 163.101-176.768 165.945-176.595 168.791-176.463 170.131-176.401 171.511-176.286 172.89-176.228 172.887-176.586 172.875-176.946 172.853-177.305 172.591-178.657 172.216-179.977 171.743-181.27 170.599-183.726 169.182-186.028 167.583-188.213 165.175-191.189 162.466-193.892 159.497-196.308 156.215-198.734 152.692-200.794 148.968-202.462 144.983-204.024 140.85-205.145 136.605-205.735 134.574-206.017 132.302-208.122 131.32-209.799 130.211-211.695 129.741-214.488 130.429-216.614 131.121-218.753 132.447-220.818 134.493-221.899 135.197-222.196 135.901-222.493 136.605-222.79 138.173-223.211 139.74-223.211 141.307-222.79 155.81-220.774 169.949-212.829 179.369-201.634 185.302-194.583 190.094-186.394 190.568-176.976 190.823-171.908 189.461-165.602 185.483-162.126 182.645-159.646 179.21-158.565 175.459-158.55 173.32-158.541 171.171-158.668 169.035-158.765 163.677-159.009 158.336-159.42 153.006-159.957 154.178-156.125 155.35-152.294 156.522-148.464 179.547-142.861 212.572-127.059 236.228-109.463 257.425-93.696 278.962-70.88 286.278-56.442L291.793-45.559Z"/>
<path transform="matrix(1,0,0,-1,364.1041,3019.1644)" d="M0 0C.517-.517 .98-7.077 1.005-14.577H1.006C1.07-28.014-1.559-35.052-4.727-29.926-6.314-27.358-1.721 1.721 0 0M-2.855 211.3C1.154 274.13 3.971 303.386 6.226 305.631 9.132 308.522 46.173 316.967 47.99 315.15 48.669 314.472 48.137 308.67 46.812 302.258 45.484 295.846 42.932 280.756 41.141 268.724 39.349 256.692 36.291 238.136 34.345 227.489L30.806 208.131 15.924 198.504H15.923C7.738 193.208-.158 188.876-1.623 188.876-3.636 188.876-3.938 194.352-2.855 211.3M16.979 118.846 16.978 118.845C12.79 96.571 8.567 75.406 7.593 71.812L5.823 65.277 4.412 72.934C1.358 89.493-3.849 148.037-3.227 158.804-2.569 170.161-2.524 170.226 10.559 178.31 17.778 182.771 24.55 186.477 25.607 186.555 28.415 186.751 25.613 164.764 16.979 118.846M-15.948 269.817C-17.911 255.981-20.234 243.316-21.113 241.675-22.926 238.286-35.08 287.052-33.922 293.067-33.443 295.552-29.574 297.799-22.8 299.528-10.425 302.685-10.959 304.998-15.948 269.817M-16.913 127.077C-16.792 110.745-19.275 105.105-22.337 114.754-24.381 121.197-24.068 155.327-21.932 158.734-19.447 162.697-17.067 147.673-16.913 127.077ZM-57.135 156.984C-85.494 143.503-119.284 131.731-144.122 126.679V126.68C-164.66 122.501-202.894 122.328-214.197 126.362-234.582 133.638-245.033 147.278-245.007 166.566-244.984 182.103-239.227 193.99-223.819 210.31-199.071 236.526-162.941 256.218-103.021 276.148-81.46 283.32-60.229 289.841-55.841 290.642L-47.861 292.097-45.536 281.504C-44.257 275.678-39.727 255.718-35.467 237.148-31.209 218.577-27.724 198.215-27.724 191.897-27.724 172.061-29.266 170.231-57.135 156.984M-46.947 815.622-48.828 809.059-50.309 816.442C-52.473 827.247-52.115 849.53-49.774 849.53-48.665 849.53-47.154 843.377-46.412 835.857-45.673 828.337-45.914 819.231-46.947 815.622M-147.978 539.516V539.516C-151.767 526.668-155.674 514.717-156.659 512.955-159.769 507.398-163.988 518.409-162.283 527.637-160.528 537.137-143.257 569.384-141.979 565.547-141.489 564.078-144.188 552.364-147.978 539.516M17.968 1019.96C27.956 1014.424 31.714 1003.905 30.799 984.04 30.144 969.809 28.803 964.326 23.669 954.893 20.19 948.502 14.497 941.246 11.018 938.769H11.017C7.537 936.291 .45 933.785-4.734 933.201-12.88 932.283-14.601 932.841-17.432 937.32-19.232 940.171-21.349 948.901-22.134 956.721-25.608 991.3-.826 1030.379 17.968 1019.96M14.044 581.65C15.359 588.765 18 597.56 19.912 601.194L23.388 607.8 24.959 602.332C28.198 591.052 26.788 555.128 21.419 512.173H21.424C18.373 487.765 14.995 465.824 13.915 463.419 11.012 456.954 11.135 565.913 14.044 581.65M94.072 728.189C89.768 719.126 85.725 711.711 85.089 711.711 82.608 711.711 74.905 729.793 69.626 748.009 64.007 767.395 61.307 799.762 64.85 805.253 67.094 808.731 97.657 779.677 101.491 770.421 105.369 761.06 102.836 746.644 94.072 728.189ZM51.663 683.75V683.75C41.48 678.384 32.647 677.322 34.061 681.632 35.178 685.038 50.391 690.267 56.406 689.312 59.983 688.744 59.037 687.634 51.663 683.75M-11.293-34.285-11.271-34.286C-6.16-39.933 1.177-39.818 6.413-34.009 10.149-29.866 10.58-25.722 10.58 5.914 10.58 37.731 11.165 43.264 16.511 61.996 23.09 85.049 40.113 168.739 40.113 178.031 40.113 194.817 41.409 196.447 73.733 220.292 144.366 272.397 207.604 333.106 266.603 405.448 387.522 553.715 467.808 718.891 488.836 862.656 492.936 890.685 492.347 955.823 487.781 979.199 483.533 1000.956 473.504 1030.794 464.454 1048.601 442.748 1091.313 403.723 1129.031 356.649 1152.795 243.285 1210.024 62.142 1196.528-88.956 1119.595-170.718 1077.965-235.62 1019.367-235.491 987.316-235.451 978.41-234.04 975.824-227.275 972.261-220.561 968.725-218.023 970.827-218.023 979.929-218.023 989.63-214.189 996.968-200.568 1013.335-160.793 1061.129-70.272 1114.007 18.237 1141.15 157.268 1183.787 299.582 1175.539 381.377 1120.106 432.851 1085.222 461.921 1033.423 469.096 963.801 481.657 841.92 418.245 660.75 303.908 491.858 259.746 426.623 200.092 354.713 151.47 308.1 114.545 272.7 50.328 219.496 47.699 222.124 47.123 222.7 48.994 235.882 51.855 251.417 54.717 266.951 58.313 288.785 59.846 299.936 62.468 319.005 62.973 320.289 68.327 321.545 99.83 328.929 144.81 340.68 147.913 342.337 153.726 345.443 149.953 349.13 142.124 347.996 138.355 347.449 119.672 343.418 100.606 339.037 81.539 334.655 65.431 331.07 64.813 331.07 64.196 331.07 64.276 334.269 64.995 338.18 65.712 342.091 67.769 363.501 69.562 385.76 73.149 430.274 74.623 436.595 91.565 480.101 122.927 560.635 131.909 613.928 119.953 648.532 118.033 654.09 111.588 666.355 105.632 675.788 99.676 685.22 94.835 693.47 94.861 694.121 94.893 694.772 101.333 698.17 109.172 701.672 125.842 709.119 141.167 721.906 149.868 735.626 154.668 743.194 156.055 748 156.055 757.058 156.055 771.339 150.723 782.573 128.78 814.529 120.105 827.162 108.664 845.745 103.357 855.824 91.699 877.969 81.175 887.724 59.692 896.308 43.953 902.597 26.987 916.225 26.987 922.58 26.987 924.256 25.543 926.183 23.775 926.86 14.276 930.506 19.403 911.865 30.607 902.029 34.857 898.297 46.364 891.525 56.177 886.981 65.991 882.437 75.158 877.319 76.551 875.609 77.943 873.899 85.198 861.671 92.674 848.436 100.148 835.201 110.531 818.354 115.744 810.999 129.221 791.986 142.929 765.103 142.929 757.69 142.929 748.399 139.706 741.438 130.88 731.669 123.189 723.156 102.075 708.085 100.31 709.85 99.822 710.338 102.752 717.354 106.822 725.44 122.706 757.001 120.28 769.061 92.585 796.204 81.769 806.804 72.382 817.172 71.725 819.241 71.068 821.311 72.012 828.68 73.823 835.616 77.834 850.973 75.251 858.973 65.937 860.053 57.188 861.067 52.409 852.646 54.097 839.182 54.815 833.443 55.693 811.52 56.05 790.465 56.741 749.561 58.805 739.607 71.988 713.591L77.329 703.052 72.393 702.031C69.678 701.471 62.699 700.393 56.883 699.636 35.95 696.915 20.424 688.984 20.424 681.012 20.424 665.325 53.708 668.877 75.06 686.844L82.154 692.812 86.135 687.534C111.987 653.262 116.88 627.723 106.861 579.361 101.604 553.987 93.975 530.711 68.144 461.23 59.919 439.109 56.119 418.458 55.664 393.415 55.237 369.87 51.35 330.536 49.259 328.583 47.474 326.916 6.954 317.561 5.933 318.579 4.39 320.122 10.004 373.289 14.875 403.26 17.71 420.706 20.677 440.886 21.465 448.105 22.254 455.325 25.457 478.951 28.582 500.608 35.252 546.817 36.865 605.523 31.64 611.832 26.423 618.13 16.989 616.402 11.933 608.221 1.61 591.518 .292 579.966-1.484 490.764-3.21 403.995-7.316 317.966-9.855 315.385-11.165 314.054-36.124 306.964-36.698 307.76-36.832 307.947-37.69 330.741-38.605 358.414-40.429 413.644-42.725 426.855-60.469 484.201-75.147 531.643-78.728 550.259-78.832 579.362-78.9 600.809-77.829 609.962-72.978 629.388-66.317 656.063-63.77 662.257-50.107 685.012-31.309 716.317-28.173 729.388-33.462 754.378-35.753 765.206-37.654 787.562-38.45 813.067-39.618 850.484-40.126 854.55-43.983 857.366-50.695 862.267-55.85 861.031-60.701 853.357-64.506 847.334-65.013 843.906-64.013 830.934-63.364 822.511-60.293 807.253-57.189 797.026-49.847 772.832-50.021 764.966-58.425 741.243-67.644 715.218-104.94 642.068-110.854 638.413-111.869 637.785-110.279 644.915-107.321 654.256-94.787 693.828-86.504 724.411-84.509 738.469-83.336 746.731-82.419 779.506-82.47 811.3-82.569 873.166-82.182 875.707-71.095 886.059-65.321 891.45-45.627 900.659-34.84 903.01-27.112 904.695-18.954 913.344-18.954 919.853-18.954 923.41-17.797 923.775-10.307 922.576 9.337 919.434 26.154 929.306 35.86 949.675 43.257 965.221 43.173 995.205 35.679 1010.311 31.188 1019.365 28.514 1021.954 20.117 1025.378 13.819 1027.957 7.825 1028.972 4.297 1028.086-12.657 1023.831-29.194 996.56-31.522 969.014L-32.84 953.439-35.852 960.791C-43.078 978.426-41.385 1011.586-32.207 1032.192-26.566 1044.858-13.738 1056.451 4.739 1065.583 19.044 1072.654 23.221 1073.674 40.897 1074.415 59.024 1075.177 61.577 1074.778 68.375 1070.131 72.496 1067.312 78.256 1060.577 81.175 1055.162 86.361 1045.546 86.441 1044.61 84.707 1014.692 83.73 997.847 82.95 974.714 82.973 963.283 83.011 944.943 83.723 941.129 89.036 930.825 96.335 916.668 106.547 906.247 135.259 883.658 176.346 851.332 189.544 836.217 197.691 812.158 204.597 791.764 201.724 772.104 187.168 740.149 157.618 675.278 152.187 654.792 158.458 631.863 159.775 627.05 165.892 611.792 172.052 597.955 188.108 561.892 187.882 556.203 168.807 515.92 160.831 499.075 150.695 475.942 146.282 464.512 133.016 430.145 128.176 403.259 135.259 403.259 137.155 403.259 138.54 405.239 138.54 407.945 138.54 422.681 157.647 471.014 179.45 511.43 201.602 552.494 201.987 560.923 183.582 601.912 169.598 633.057 167.801 644.101 173.226 665.554 175.63 675.06 185.009 698.931 194.069 718.603 220.462 775.908 222.734 793.748 207.535 824.371 197.226 845.143 186.705 856.675 155.346 881.574 96.214 928.525 93.111 934.637 97.529 995.489 99.293 1019.804 99.161 1029.546 96.927 1040.081 93.119 1058.022 83.397 1072.128 70.185 1078.878 50.05 1089.167 15.771 1086.926-10.522 1073.602-23.998 1066.773-40.579 1050.652-46.042 1039.068-52.594 1025.174-55.001 1002.384-51.821 984.355-47.276 958.584-45.474 953.165-37.519 941.345-25.387 923.316-27.772 914.427-46.311 908.57-62.299 903.518-79.867 893.451-85.332 886.21-94.417 874.174-95.507 865.166-95.52 802.141-95.534 734.744-96.456 727.691-111.63 678.896-117.054 661.45-124.097 636.848-127.279 624.226-131.574 607.191-135.777 596.758-143.585 583.754-169.248 541.019-175.28 521.278-166.505 508.751-162.152 502.536-151.314 502.138-148.136 508.076-144.339 515.17-135.392 545.24-128.791 573.087-123.346 596.06-120.865 602.235-110.338 619.027-86.519 657.019-58.728 710.256-50.536 733.587L-45.544 747.806-45.44 736.868C-45.301 723.078-51.759 707.135-67.746 681.795-74.483 671.121-83.246 655.518-87.22 647.125-93.946 632.919-94.496 630.04-95.163 605.494-95.777 582.879-94.913 574.316-89.097 545.336-85.367 526.752-78.945 500.718-74.827 487.483-65.792 458.442-54.802 414.594-53.172 401.073-52.518 395.658-51.693 371.662-51.34 347.748L-50.694 304.266-84.601 294.866C-162.17 273.365-202.022 254.008-233.981 222.309-267.224 189.337-267.822 147.63-235.361 126.148-200.058 102.785-126.751 110.448-52.032 145.312-41.939 150.022-32.998 153.875-32.164 153.875-31.329 153.875-31.081 148.64-31.611 142.242-32.757 128.422-28.744 107.08-24.132 102.468-22.327 100.663-18.632 99.185-15.923 99.185-11.261 99.185-10.801 97.685-7.329 71.179-2.719 35.979-2.777 31.778-8.153 11.681-15.022-13.995-16.049-29.03-11.293-34.285"/>
<path transform="matrix(1,0,0,-1,4031.0736,2295.6048)" d="M0 0C-3.959-4.771-.311-10.098 9.046-13.208 18.19-16.248 28.591-13.216 28.591-7.511 28.591 1.586 6.199 7.469 0 0"/>
<path transform="matrix(1,0,0,-1,4234.2595,2768.2974)" d="M0 0C-48.865 23.966-106.42 61.27-197.563 128.046-238.026 157.692-256.718 172.361-333.194 234.487-435.737 317.79-504.932 368.55-542.109 387.743-548.727 391.159-554.521 394.209-554.986 394.519-555.451 394.83-541.645 410.125-524.306 428.511-459.113 497.633-408.046 559.4-338.005 653.847-264.163 753.42-174.158 889.37-152.318 934.322-147.321 944.608-147.316 944.704-151.626 947.856-154.013 949.602-157.943 950.746-160.358 950.4-165.494 949.664-168.783 945.257-261.24 815.234-397.014 624.294-469.198 533.816-562.458 437.676-578.692 420.941-592.712 407.968-593.615 408.846-595.26 410.449-591.722 591.604-587.965 698.198-585.116 779.043-585.341 823.933-588.627 830.375-592.315 837.602-603.138 841.179-606.676 836.341-609.356 832.676-611.846 811.613-617.449 745.231-623.08 678.508-624.568 645.84-630.959 448.727L-632.238 409.264-638.394 405.732C-641.78 403.788-646.253 399.598-648.336 396.42-653.804 388.075-649.633 375.011-639.382 368.372L-631.854 363.496-631.828 276.893C-631.789 152.759-629.706 84.983-625.808 81.085-622.559 77.836-612.972 78.468-609.265 82.176-606.989 84.452-602.925 139.955-604.696 144.573-605.276 146.083-604.272 176.763-602.465 212.75-600.659 248.736-598.509 297.925-597.688 322.057L-596.196 365.934-588.062 370.615-579.928 375.297-564.896 366.513C-540.571 352.298-511.669 330.805-441.174 274.504-311.66 171.068-204.642 93.362-110.307 34.263-64.384 5.493-34.173-10.482-2.868-22.55L-2.867-22.551C9.165-27.189 22.58-31.072 26.944-31.175 35.433-31.378 41.09-26.967 39.075-21.716 38.412-19.988 20.828-10.216 0 0"/>
<path transform="matrix(1,0,0,-1,7104.938,2320.503)" d="M0 0C5.131 2.746 5.296 5.866 .791 14.899-3.348 23.193-11.753 25.97-19.464 21.589-32.021 14.453-31.147 5.402-17.434 .594H-17.435C-8.007-2.712-5.244-2.807 0 0"/>
<path transform="matrix(1,0,0,-1,4106.379,2308.1268)" d="M0 0C2.582-.507 5.005-1.062 5.385-1.217 7.507-2.133 14.538 3.484 14.538 6.094 14.538 14.204-8.119 20.008-10.953 12.623-12.554 8.451-6.287 1.229 0-.001Z"/>
<path transform="matrix(1,0,0,-1,4515.527,2328.3724)" d="M0 0C-1.635 4.26-14.379 9.98-22.235 9.98-34.573 9.98-36.755-.833-25.266-5.041-12.917-9.564 2.49-6.49 0 0"/>
<path transform="matrix(1,0,0,-1,4083.0032,2431.899)" d="M0 0C-2.41-33.959-15.776-68.912-33.666-88.037-52.419-108.086-57.264-100.599-57.209-51.651-57.184-28.776-55.996-13.206-53.287-.243-49.758 16.639-43.502 38.992-41.73 41.046-41.342 41.497-37.888 39.227-34.057 36.003-25.699 28.971-7.431 19.446-2.302 19.446 .977 19.446 1.229 17.313 0 0M-16.047 68.504C-11.711 66.84-2.214 47.551-.24 36.4 1.446 26.878 .625 26.625-11.888 32.819-23.776 38.704-29.901 46.513-29.901 55.785-29.901 63.923-22.298 70.902-16.047 68.504M1177.623-11.19C1170.993-11.19 1170.463-11.764 1147.471-43.806 1137.346-57.915 1117.361-72.942 1103.658-76.748 1089.311-80.733 1080.598-79.614 1074.401-72.99 1060.863-58.52 1057.358-42.388 1057.265 5.871 1057.214 32.672 1056.426 43.419 1054.306 46.21 1051.247 50.24 1037.798 56.625 1032.369 56.625 1024.937 56.625 1017.591 45.934 1006.811 19.435 985.116-33.898 965.161-70.022 947.791-87.404 941.222-93.978 940.334-94.307 938.909-90.686 936.048-83.42 936.948-50.172 940.793-21.123 942.869-5.433 944.592 14.295 944.621 22.717L944.672 38.03 936.177 42.178C922.506 48.853 917.07 45.618 912.609 28.156 910.615 20.351 907.705 5.252 906.142-5.398L903.302-24.764 884.611-42.261C855.793-69.235 813.797-95.884 792.596-100.647 781.458-103.15 776.684-99.408 772.807-85.137 764.621-55.001 786.177 8.51 810.365 25.52 813.906 28.01 814.826 27.394 818.597 19.999 820.933 15.422 823.554 6.777 824.422 .79 826.281-12.031 828.615-15.566 835.221-15.566 844.985-15.566 853.024 1.8 851.112 18.765 848.13 45.212 813.196 62.783 788.57 50.22 778.581 45.124 766.068 31.682 759.708 19.214 757.135 14.172 751.432 6.09 747.034 1.255 742.636-3.581 733.701-13.527 727.178-20.848 706.923-43.585 673.328-75.586 665.016-80.062 659.385-83.092 656.403-83.656 654.743-81.995 649.791-77.043 646.177-54.888 644.818-21.147 644.039-1.833 642.279 16.34 640.906 19.24 636.433 28.685 627.503 33.376 612.135 34.355L597.938 35.26V44.523C597.938 63.432 588.513 74.798 576.098 70.857 566.758 67.892 564.513 49.917 571.719 35.783L576.125 27.14 571.484 4.147C565.861-23.712 554.169-60.205 546.141-74.955 539.85-86.515 525.598-100.88 520.422-100.88 516.165-100.88 509.498-91.017 505.236-78.414 501.122-66.25 499.652-50.423 498.617-7.153 497.953 20.62 497.369 24.726 493.533 28.561 487.925 34.17 472.409 36.391 467.406 32.302 465.375 30.641 457.467 15.992 449.834-.251 431.503-39.26 419.6-62.145 410.012-76.816L402.149-88.848 401.503-65.878C401.148-53.245 402.427-26.051 404.348-5.448 406.267 15.155 407.187 34.613 406.389 37.791 405.592 40.97 402.455 45.523 399.421 47.911 393.636 52.461 380.397 53.805 378.093 50.076 377.353 48.879 374.298 35.371 371.303 20.058L365.859-7.785 346.969-33.003C327.604-58.855 292.546-96.504 287.836-96.504 283.72-96.504 276.651-80.661 272.974-63.192 271.132-54.442 268.683-31.532 267.533-12.281 264.029 46.329 262.508 51.453 247.111 56.535 232.554 61.339 222.854 52.278 205.642 17.797 200.688 7.871 196.01-.25 195.248-.25 194.486-.25 193.238 6.467 192.474 14.677 190.192 39.232 185.398 49.404 173.113 55.757 163.504 60.726 154.843 59.546 146.381 52.117 142.186 48.433 138.12 43.426 137.348 40.992 135.951 36.601 135.915 36.6 131.228 40.863 118.334 52.592 105.499 53.094 84.521 42.695 65.227 33.13 50.304 28.383 37.3 27.675L26.841 27.104 21.915 41.587C16.786 56.67 8.21 69.824 .033 75.152-2.594 76.864-9.207 79.451-14.662 80.903-23.291 83.2-25.681 83.021-33.055 79.521-38.139 77.108-42.421 73.141-43.754 69.609-45.748 64.326-46.826 63.832-54.201 64.822-65.829 66.381-72.01 58.97-79.991 33.895-93.012-7.009-97.461-62.14-89.818-87.877-80.735-118.463-47.622-131.359-19.894-115.109 5.24-100.38 23.948-57.676 26.356-9.538L27.587 15.073 42.048 15.099C50.002 15.115 65.815 17.048 77.189 19.395 88.562 21.74 98.246 23.283 98.709 22.82 99.172 22.358 98.482-3.871 97.177-35.466 94.504-100.211 94.642-100.991 109.537-105.127 126.744-109.905 132.91-106.13 135.111-89.469 140.381-49.562 159.089 21.279 162.669 14.883 163.679 13.076 165.706-3.126 167.172-21.121 170.406-60.832 172.525-67.258 183.033-69.229 196.75-71.802 198.447-70.021 207.531-43.482 215.501-20.199 236.186 25.35 237.976 23.56 238.439 23.097 239.462 9.43 240.249-6.81 243.572-75.376 254.491-104.248 279.98-111.853 300.214-117.89 315.007-107.909 345.218-67.831L361.055-46.822 362.393-68.925C363.129-81.082 364.781-94.679 366.064-99.141 369.265-110.274 379.482-119.888 390.713-122.34L390.714-122.351C415.309-127.717 430.781-114.477 454.528-67.745 462.261-52.527 469.143-40.632 469.823-41.311 470.503-41.991 471.059-45.44 471.059-48.976 471.059-59.188 477.469-81.33 483.821-93.058 498.128-119.475 530.804-126.089 551.685-106.794 567.748-91.951 581.766-54.637 593.56 4.668 594.936 11.587 596.853 17.248 597.821 17.248 598.788 17.248 602.656 16.632 606.416 15.881L613.253 14.514 613.297-12.01C613.393-71.586 623.288-96.681 649.707-104.362 658.459-106.907 663.089-107.154 669.524-105.421 680.633-102.43 702.379-84.144 722.633-60.763L739.04-41.822 740.291-63.149C742.194-95.549 751.903-110.864 774.799-117.575 790.383-122.143 801.568-120.228 823.541-109.23 841.655-100.164 878.284-73.918 889.846-61.721 893.38-57.993 896.936-54.942 897.748-54.942 898.561-54.942 899.886-60.603 900.694-67.521 903.088-88.028 906.232-96.517 914.744-105.455 920.179-111.16 926.115-114.769 932.999-116.549 959.311-123.357 979.671-104.38 1014.933-40.178 1018.402-33.863 1021.852-28.695 1022.601-28.693 1023.349-28.693 1024.566-32.383 1025.303-36.895 1027.376-49.572 1038.427-70.866 1047.51-79.687 1057.272-89.168 1075.527-96.507 1089.347-96.507 1120.761-96.507 1150.747-76.033 1171.047-40.724 1173.814-35.911 1178.494-28.339 1181.448-23.898 1187.626-14.611 1186.596-11.19 1177.623-11.19"/>
<path transform="matrix(1,0,0,-1,4551.074,2333.5418)" d="M0 0C6.055-4.764 21.073-6.174 26.842-2.521 28.533-1.451 30.102 2.549 30.329 6.368 30.92 16.31 23.873 20.531 10.1 18.48 4.383 17.629-1.525 15.919-3.03 14.682-7.457 11.037-6.183 4.862 0 0Z"/>
<path transform="matrix(1,0,0,-1,5815.042,2465.18)" d="M0 0V0C-7.688-11.554-17.989-25.336-22.891-30.627L-31.802-40.246-30.42-24.065C-26.847 17.749-1.984 75.328 23.002 99.654 33.403 109.781 35.266 108.889 38.417 92.275 43.333 66.356 41.948 63.031 0 0M754.968 71.374C758.206 75.402 758.353 74.768 757.107 62.064 755.597 46.644 750.112 29.292 742.919 17.178H742.918C740.24 12.666 737.566 8.975 736.978 8.975 733.124 8.975 748.959 63.898 754.968 71.374M1573.699 72.926C1568.431 74.68 1564.353 72.627 1536.509 54.197 1497.16 28.151 1457.144 5.103 1406.794-20.514 1354.025-47.362 1329.926-56.792 1310.416-58.229 1295.969-59.292 1294.761-59.032 1291.605-54.183 1281.179-38.157 1280.046-7.765 1287.498 56.004L1292.099 95.381 1286.431 100.303C1280.757 105.231 1267.49 106.997 1262.067 103.546 1260.673 102.659 1258.848 97.998 1258.007 93.189 1255.762 80.317 1247.965 69.601 1222.133 43.884 1174.983-3.057 1129.903-34.176 1105.683-36.504 1095.93-37.441 1095.267-37.147 1091.731-30.311 1082.939-13.307 1086.127 17.055 1100.375 52.001 1109.505 74.396 1119.347 91.368 1130.44 103.846L1138.474 112.883 1141.926 104.75C1146.243 94.574 1146.367 74.212 1142.196 60.354 1138.59 48.37 1139.211 46.161 1146.188 46.161 1151.59 46.161 1157.255 52.733 1165.103 68.104 1171.595 80.817 1173.411 103.285 1168.833 114.241 1160.653 133.818 1133.364 142.048 1114.086 130.751 1096.348 120.356 1074.531 85.077 1062.278 46.975 1055.227 25.046 1047.534 14.389 1016.052-17.063 998.318-34.779 979.029-50.093 974.446-50.093 968.81-50.093 967.198-37.856 965.943 14.441 964.472 75.74 963.484 80.188 949.178 89.913 942.086 94.734 939.043 95.338 923.484 95.02L905.834 94.658V105.35C905.834 117.636 901.302 123.61 890.233 125.911 884.9 127.021 882.086 126.219 877.54 122.297 867.062 113.259 866.719 98.868 876.656 85.212 878.789 82.281 877.944 78.384 872.153 64.43 851.792 15.371 819.427-23.702 785.098-40.669 758.091-54.016 744.655-50.575 738.597-28.76 735.003-15.821 735.614-10.716 740.757-10.716 754.552-10.716 777.26 10.365 788.872 33.95 800.837 58.254 799.761 82.257 786.004 97.924 772.174 113.677 748.883 116.946 735.322 105.039 728.769 99.285 717.682 80.15 713.691 67.704 713.053 65.715 704.835 58.964 695.428 52.699 686.021 46.436 673.778 37.531 668.222 32.912L658.121 24.514 646.921 41.354C640.762 50.615 632.652 62.277 628.9 67.269L622.078 76.345 629.96 90.439C634.295 98.191 638.46 109.041 639.214 114.55 640.42 123.344 639.911 125.244 635.034 130.121 623.252 141.901 607.611 140.412 594.573 126.267 583.719 114.492 581.424 103.938 586.48 89.045 589.996 78.686 589.974 78.477 584.486 70.568 553.106 25.344 502.669-24.057 493.6-18.453 492.551-17.804 490.124-12.669 488.206-7.042 485.579 .669 484.72 11.952 484.72 38.771 484.72 73.06 484.543 74.476 479.858 77.758 473.185 82.433 460.032 82.141 455.578 77.22 453.615 75.051 447.156 62.992 441.224 50.422 428.08 22.569 413.783-2.997 406.425-11.808L400.944-18.371 402.12 2.411C402.767 13.841 406.473 40.228 410.356 61.048 417.207 97.778 417.295 98.994 413.332 101.996 411.085 103.696 405.505 105.132 400.932 105.158 393.438 105.221 392.294 104.456 389.35 97.409 387.553 93.108 384.517 82.525 382.604 73.892 380.02 62.227 376.563 54.542 369.147 43.975 350.011 16.706 295.805-32.591 284.957-32.591 279.867-32.591 278.383-18.201 278.177 33.42 278.004 75.557 277.682 79.071 273.46 84.828 265.042 96.312 256.475 99.02 233.693 97.397 216.191 96.151 213.457 96.419 213.457 99.374 213.457 106.777 198.418 112.089 188.374 108.234 185.358 107.078 185.03 104.602 186.245 92.271 187.537 79.162 186.871 75.249 179.697 53.81 161.421-.804 135.965-38.1 109.381-49.207 98.748-53.65 92.675-50.66 86.523-37.952 80.153-24.792 77.86-7.476 77.838 27.427 77.826 55.706 77.481 58.278 73.069 62.975 70.453 65.76 67.006 68.039 65.412 68.039 61.915 68.039 61.875 66.874 65.818 79.871 67.611 85.777 69.076 95.341 69.076 101.124 69.076 109.861 67.877 113.003 61.985 119.714 44.131 140.048 17.239 141.15-4.041 122.419-30.315 99.292-55.122 45.911-63.601-5.75-70.093-45.295-63.25-64.677-41.128-69.395-16.93-74.556 4.281-57.38 36.033-6.909L48.749 13.304 50.155-2.534C53.449-39.643 68.812-62.315 94.241-67.594 116.93-72.304 135.375-64.754 156.598-42.066 179.765-17.302 203.262 30.429 212.279 71.042 213.583 76.913 214.208 77.239 221.77 75.988 226.221 75.251 232.57 74.648 235.879 74.626L241.895 74.602V27.651C241.895-14.372 242.368-20.562 246.394-31.323 251.452-44.842 259.943-53.196 272.043-56.557 296-63.21 313.77-54.792 348.409-20.377L373.151 4.205V-6.606C373.151-28.101 382.064-39.152 399.402-39.152 415.499-39.152 423.305-31.971 443.16 1.102 450.37 13.113 456.599 21.397 457.139 19.697 457.676 18.011 458.712 11.52 459.443 5.274 462.646-22.103 474.656-35.031 497.232-35.403 507.029-35.565 512.516-34.25 521.602-29.567 535.677-22.31 565.15 5.607 587.519 32.871 596.479 43.791 604.541 52.727 605.435 52.727 609.34 52.727 623.024 19.11 624.144 6.766L625.312-6.099 609.562-23.173C592.461-41.711 581.543-56.901 579.518-64.973 577.554-72.795 582.081-80.284 590.185-82.622L590.188-82.625C607.41-87.591 617.973-83.679 635.32-65.906 649.919-50.949 659.329-32.848 662.682-13.276L665.103 .855 684.608 18.089C695.336 27.567 704.328 35.054 704.591 34.726 704.854 34.398 704.252 26.746 703.253 17.723 700.162-10.18 706.613-37.694 719.59-51.946 729.523-62.856 740.151-66.446 762.648-66.471 782.423-66.499 784.419-66.061 800.27-58.233 838.052-39.574 876.496 9.067 897.119 64.305L901.034 74.792 914.283 74.148C927.514 73.506 927.535 73.495 929.038 65.849 929.865 61.638 930.986 39.488 931.526 16.628 932.266-14.674 933.493-28.386 936.498-38.908 941.623-56.859 950.579-66.272 965.597-69.493 985.899-73.846 995.879-68.202 1029.247-33.493 1048.809-13.14 1053.496-9.244 1053.519-13.321 1053.553-21.459 1063.229-39.941 1070.785-46.297 1074.621-49.525 1081.899-53.286 1086.958-54.655 1100.101-58.211 1122.657-56.094 1134.438-50.198 1161.275-36.766 1204.374-2.466 1232.807 28.089L1250.641 47.254 1249.233 33.035C1246.401 4.454 1247.325-28.707 1251.333-42.382 1261.354-76.569 1299.571-89.629 1344.448-74.205 1401.594-54.563 1582.455 54.445 1580.147 67.855 1579.854 69.56 1576.952 71.841 1573.699 72.926"/>
<path transform="matrix(1,0,0,-1,6227.1437,2811.6129)" d="M0 0C-31.062 .924-77.173 17.179-152.506 53.763-234.032 93.355-320.021 142.026-428.341 209.891-505.019 257.931-701.025 387.684-749.008 422.167L-773.255 439.592-759.178 448.838C-721.413 473.643-664.427 527.3-583.097 614.633-492.846 711.548-384.921 848.499-297.539 976.999L-290.627 987.161-294.978 992.69C-297.369 995.732-302.358 998.886-306.063 999.7-311.609 1000.918-313.967 1000.079-319.412 994.946-329.018 985.892-352.978 955.941-411.899 879.333-527.664 728.818-583.082 663.169-666.744 577.444-730.857 511.75-775.791 470.748-793.975 461.344-799.451 458.512-801.62 458.437-808.317 460.848L-816.207 463.689-814.746 519.119C-813.163 579.195-809.155 663.962-802.368 780.89-796.801 876.781-796.701 902.6-801.873 907.261-807.492 912.326-816.512 914.066-819.358 910.636-825.473 903.269-838.322 771.61-845.155 646.32-854.121 481.924-853.466 196.614-843.873 87.423-840.213 45.772-837.246 39.281-824.625 45.323-818.875 48.075-818.822 48.319-818.212 74.87-817.667 98.652-818.005 101.642-821.247 101.642-824.604 101.642-824.798 107.367-823.672 173.286-822.063 267.582-817.419 435.008-816.382 436.152-814.443 438.292-802.154 430.339-773.189 408.202-688.246 343.281-542.632 246.611-416.31 171.275-251.312 72.875-131.929 14.163-49.888-8.93-34.692-13.208-26.962-14.078-7.597-13.686 13.033-13.268 16.503-12.656 19.21-8.949 23.975-2.423 20.053-.597 0 0"/>
<path transform="matrix(1,0,0,-1,5108.317,2337.4718)" d="M0 0C7.814 5.714-4.045 16.896-17.919 16.896-30.869 16.896-32.008 5.729-19.609 .331V.33C-10.975-3.427-4.829-3.531 0 0"/>
<path transform="matrix(1,0,0,-1,5060.037,2335.6849)" d="M0 0C1.623 2.591 .859 5.277-2.978 10.467-10.559 20.721-21.571 22.18-32.276 14.351-35.992 11.634-36.213 10.442-33.935 5.442-32.488 2.267-29.082-1.247-26.364-2.368V-2.369C-18.764-5.501-2.535-4.044 0 0"/>
<path transform="matrix(1,0,0,-1,1268.1028,2531.9093)" d="M0 0C5.926 7.14-14.393 14.304-21.216 7.481-23.219 5.479-22.991 3.978-20.221 .918V.917C-15.948-3.804-3.621-4.364 0 0"/>
<path transform="matrix(1,0,0,-1,2136.062,2297.6087)" d="M0 0C-.003 84.009 14.997 149.166 51.874 225.322 96.88 318.267 152.049 379.444 220.562 412.378 259.211 430.958 288.029 437.504 329.941 437.219 366.034 436.976 390.851 431.496 422.027 416.886 486.442 386.7 547.243 322.833 581.817 249.041 628.266 149.9 636.882 30.231 604.667-68.35 589.449-114.919 571.216-151.677 539.825-199.072 508.548-246.295 481.147-278.683 439.321-317.87 391.423-362.745 343.208-390.867 297.783-400.423 233.996-413.84 171.208-384.463 130.549-322.178 45.706-192.208 69.455 73.533 181.28 245.487 209.46 288.82 249.86 333.966 287.307 363.97 308.53 380.974 318.698 387.099 329.394 389.319 336.906 390.879 337.037 394.757 329.807 401.548 325.135 405.937 321.932 406.826 310.515 406.852 298.78 406.886 294.157 405.572 278.159 397.65 219.167 368.439 155.207 301.037 110.458 220.924 89.584 183.554 60.165 111.692 54.494 84.222 53.873 81.214 50.817 69.023 47.704 57.131 35.094 8.98 25.506-72.649 27.31-116.495 27.719-126.424 27.444-134.543 26.698-134.543 24.452-134.534 14.547-110.036 9.806-92.764 2.346-65.585 .002-43.409 0 0M31.334-170.977C31.334-175.298 33.805-191.032 36.823-205.943 51.63-279.069 77.851-330.556 121.198-371.616 156.968-405.5 197.776-423.805 247.906-428.452V-428.451C325.168-435.614 408.694-395.321 488.772-312.256 577.706-220.006 633.916-115.73 649.429-14.218 663.127 75.417 647.936 170.08 606.6 252.669 554.205 357.355 467.426 429.807 369.318 450.773 345.614 455.838 299.062 455.939 273.698 450.98 174.23 431.532 91.035 360.821 33.831 247.11-4.713 170.489-21.233 100.617-21.378 13.607-21.513-68.142-8.513-118.255 21.635-152.201 29.281-160.81 31.334-164.785 31.334-170.977"/>
<path transform="matrix(1,0,0,-1,2101.5845,3083.1265)" d="M0 0H17.055V-63.71H17.643C21.171-58.614 24.7-53.909 28.033-49.596L68.415 0H89.587L41.755-56.065 93.311-132.125H73.12L29.797-67.239 17.055-81.745V-132.125H0Z"/>
<path transform="matrix(1,0,0,-1,2323.6859,3160.3629)" d="M0 0-13.134 38.03C-16.074 46.656-18.035 54.497-19.995 62.142H-20.387C-22.348 54.497-24.308 46.263-27.052 38.226L-39.99 0ZM-43.519-13.33-57.241-54.889H-74.884L-29.797 77.236H-9.409L35.678-54.889H17.447L3.333-13.33Z"/>
<path transform="matrix(1,0,0,-1,2444.8336,3201.9215)" d="M0 0C4.313-.588 10.586-.784 17.251-.784 53.909-.784 73.512 19.603 73.512 55.281 73.708 86.45 56.065 106.249 19.995 106.249 11.174 106.249 4.509 105.465 0 104.485ZM-17.055 116.835C-6.665 118.599 5.685 119.775 19.211 119.775 43.715 119.775 61.162 113.894 72.728 103.309 84.686 92.527 91.547 77.236 91.547 55.869 91.547 34.306 84.686 16.663 72.532 4.509 59.986-7.841 39.598-14.506 13.918-14.506 1.568-14.506-8.429-13.918-17.055-12.938Z"/>
<path transform="matrix(1,0,0,-1,0,5000)" d="M2624.396 1784.748H2607.145V1916.873H2624.396Z"/>
<path transform="matrix(1,0,0,-1,2703.2003,3215.2518)" d="M0 0V132.125H18.819L60.966 65.279C70.572 49.792 78.413 35.874 84.49 22.348L85.078 22.544C83.51 40.187 83.117 56.261 83.117 76.844V132.125H99.192V0H81.941L39.99 67.043C30.777 81.745 21.956 96.84 15.487 111.15L14.898 110.954C15.879 94.291 16.075 78.413 16.075 56.457V0Z"/>
<path transform="matrix(1,0,0,-1,2969.6033,3194.4722)" d="M0 0C7.645-4.901 18.623-8.625 30.385-8.625 47.832-8.625 58.025 .588 58.025 13.918 58.025 26.072 50.968 33.325 33.129 39.99 11.566 47.832-1.764 59.202-1.764 77.629-1.764 98.212 15.29 113.502 40.97 113.502 54.301 113.502 64.298 110.366 69.983 107.033L65.279 93.115C61.162 95.663 52.34 99.388 40.382 99.388 22.347 99.388 15.486 88.606 15.486 79.589 15.486 67.239 23.524 61.162 41.755 54.105 64.102 45.479 75.276 34.698 75.276 15.29 75.276-5.097 60.378-22.936 29.209-22.936 16.467-22.936 2.548-19.015-4.509-14.31Z"/>
<path transform="matrix(1,0,0,-1,3182.2969,3160.3629)" d="M0 0-13.134 38.03C-16.075 46.656-18.035 54.497-19.995 62.142H-20.387C-22.348 54.497-24.308 46.263-27.052 38.226L-39.99 0ZM-43.519-13.33-57.241-54.889H-74.884L-29.797 77.236H-9.41L35.678-54.889H17.447L3.333-13.33Z"/>
<path transform="matrix(1,0,0,-1,3324.0279,3053.1334)" d="M0 0C.98-4.509 4.509-9.606 14.114-9.606 23.524-9.606 27.248-5.097 28.229 0H38.226C37.834-11.566 30.581-20.779 13.722-20.779-2.744-20.779-9.802-11.762-10.194 0ZM60.182-156.237C52.536-159.178 37.246-163.49 19.407-163.49-.588-163.49-17.055-158.394-29.993-146.044-41.363-135.066-48.42-117.423-48.42-96.84-48.42-57.437-21.171-28.621 23.132-28.621 38.422-28.621 50.576-31.953 56.261-34.698L51.948-48.616C44.891-45.283 36.07-42.931 22.74-42.931-9.41-42.931-30.385-62.926-30.385-96.056-30.385-129.577-10.39-149.376 20.583-149.376 31.757-149.376 39.402-147.808 43.323-145.848V-106.445H16.663V-92.723H60.182Z"/>
<path transform="matrix(1,0,0,-1,3458.897,3083.1265)" d="M0 0H17.251V-117.815H73.708V-132.125H0Z"/>
<path transform="matrix(1,0,0,-1,0,5000)" d="M3617.68 1784.748H3600.429V1916.873H3617.68Z"/>
<path transform="matrix(1,0,0,-1,3737.0626,3053.1334)" d="M0 0C.98-4.509 4.509-9.606 14.114-9.606 23.524-9.606 27.248-5.097 28.229 0H38.226C37.834-11.566 30.581-20.779 13.722-20.779-2.744-20.779-9.802-11.762-10.194 0ZM60.182-156.237C52.536-159.178 37.246-163.49 19.407-163.49-.588-163.49-17.055-158.394-29.993-146.044-41.363-135.066-48.42-117.423-48.42-96.84-48.42-57.437-21.171-28.621 23.132-28.621 38.422-28.621 50.576-31.953 56.261-34.698L51.948-48.616C44.891-45.283 36.07-42.931 22.74-42.931-9.409-42.931-30.385-62.926-30.385-96.056-30.385-129.577-10.39-149.376 20.583-149.376 31.757-149.376 39.402-147.808 43.323-145.848V-106.445H16.663V-92.723H60.182Z"/>
<path transform="matrix(1,0,0,-1,0,5000)" d="M3889.182 1784.748H3871.931V1916.873H3889.182Z"/>
<path transform="matrix(1,0,0,-1,4080.5079,3215.2518)" d="M0 0-43.323 132.125H-24.7L-4.117 67.043C1.372 49.204 6.273 33.129 9.998 17.643H10.39C14.114 32.933 19.407 49.596 25.484 66.847L47.832 132.125H66.063L18.819 0Z"/>
<path transform="matrix(1,0,0,-1,4278.108,3153.3057)" d="M0 0H-51.165V-47.636H6.077V-61.946H-68.415V70.179H3.136V55.869H-51.165V14.114H0Z"/>
<path transform="matrix(1,0,0,-1,4546.6677,3209.3707)" d="M0 0C-7.645-2.941-22.936-7.253-40.774-7.253-60.77-7.253-77.236-2.156-90.175 10.194-101.544 21.171-108.602 38.814-108.602 59.398-108.602 98.8-81.353 127.617-37.05 127.617-21.76 127.617-9.605 124.284-3.92 121.54L-8.233 107.621C-15.291 110.954-24.112 113.306-37.442 113.306-69.591 113.306-90.567 93.311-90.567 60.182-90.567 26.66-70.571 6.861-39.599 6.861-28.425 6.861-20.779 8.429-16.859 10.39V49.792H-43.519V63.514H0Z"/>
<path transform="matrix(1,0,0,-1,4689.77,3153.3057)" d="M0 0H-51.165V-47.636H6.077V-61.946H-68.415V70.179H3.136V55.869H-51.165V14.114H0Z"/>
<path transform="matrix(1,0,0,-1,4784.059,3202.3135)" d="M0 0C3.528-.588 8.233-.784 14.31-.784 31.953-.784 48.224 5.685 48.224 24.896 48.224 42.735 32.737 50.38 14.114 50.38H0ZM0 63.122H15.486C33.325 63.122 43.911 72.728 43.911 85.47 43.911 100.76 32.345 107.033 15.094 107.033 7.253 107.033 2.744 106.445 0 105.857ZM-17.055 117.227C-9.606 118.991 2.352 120.167 14.114 120.167 31.169 120.167 42.146 117.227 50.184 110.562 57.045 105.465 61.358 97.624 61.358 87.234 61.358 74.296 52.732 63.122 39.01 58.221V57.633C51.556 54.693 66.258 44.303 66.258 24.7 66.258 13.33 61.75 4.509 54.889-1.764 45.871-10.194 30.973-14.114 9.409-14.114-2.353-14.114-11.37-13.33-17.055-12.546Z"/>
<path transform="matrix(1,0,0,-1,4990.4787,3153.3057)" d="M0 0H-51.164V-47.636H6.077V-61.946H-68.415V70.179H3.137V55.869H-51.164V14.114H0Z"/>
<path transform="matrix(1,0,0,-1,5067.517,3083.1265)" d="M0 0H17.25V-117.815H73.708V-132.125H0Z"/>
<path transform="matrix(1,0,0,-1,0,5000)" d="M5226.3 1784.748H5209.049V1916.873H5226.3Z"/>
<path transform="matrix(1,0,0,-1,5305.1047,3083.1265)" d="M0 0H17.055V-63.71H17.643C21.171-58.614 24.7-53.909 28.032-49.596L68.415 0H89.586L41.754-56.065 93.311-132.125H73.12L29.797-67.239 17.055-81.745V-132.125H0Z"/>
</g>
</g>
</svg>
