<svg width="10000" height="6667" viewBox="0 0 10000 6667" fill="none" xmlns="http://www.w3.org/2000/svg">
<g clip-path="url(#clip0_147_2)">
<mask id="mask0_147_2" style="mask-type:luminance" maskUnits="userSpaceOnUse" x="0" y="0" width="10000" height="6667">
<path d="M0 0.000126839H10000V6666.67H0V0.000126839Z" fill="white"/>
</mask>
<g mask="url(#mask0_147_2)">
<path d="M2668.3 3394.33C2665.84 3398.92 2666.7 3401.07 2672.96 3406C2682.8 3413.74 2694.94 3413.71 2701.98 3405.93C2707.43 3399.9 2707.41 3399.74 2700.65 3394.26C2691.31 3386.69 2672.36 3386.73 2668.3 3394.33Z" fill="white"/>
<path d="M1890.86 3699.34H1901.07H1911.28L1913.38 3680.38C1914.54 3669.96 1916.29 3652.53 1917.27 3641.66L1919.05 3621.9L1941.42 3606.88C2100 3500.41 2236.76 3342.07 2301.72 3189.74C2381.82 3001.92 2371.17 2827.26 2271.5 2694.18C2252.03 2668.19 2207.29 2625.67 2180.1 2607.33C2060.4 2526.56 1891.72 2502.18 1724.6 2541.5C1626.81 2564.51 1515.89 2620.09 1441.02 2683.62C1385.38 2730.83 1365.54 2766.07 1385.24 2782.74C1391.14 2787.73 1402.3 2789.78 1402.3 2785.89C1402.3 2784.81 1400.13 2781.53 1397.48 2778.6C1392.99 2773.64 1393.02 2772.46 1397.97 2761.49C1404.06 2747.97 1431.83 2720.79 1465.3 2695.57C1658.62 2549.92 1922.45 2510.67 2110.25 2599.64C2147.79 2617.42 2176.46 2638.07 2205.66 2668.36C2271.43 2736.59 2303.52 2823.28 2303.57 2932.85C2303.64 3097.77 2223.26 3278.59 2082.52 3430.1C2056.13 3458.51 2012.91 3500.12 1984.2 3524.76C1954.82 3549.98 1924.39 3573.42 1922.93 3571.96C1922.32 3571.35 1925.01 3528.88 1928.92 3477.58C1937.4 3366.45 1945.92 3234.39 1951.99 3120.36C1962.85 2916.09 1970.17 2644.08 1965.15 2631.26C1962.17 2623.67 1952.76 2618.04 1946.84 2620.32C1941.53 2622.35 1939.87 2632.77 1934.61 2696.99C1925.58 2807.41 1905.54 3206.69 1899.74 3391.62C1897.35 3467.82 1894.57 3545.06 1893.55 3563.26L1891.71 3596.36L1863.57 3614.56C1747.28 3689.79 1590.12 3754.96 1510.22 3761.09C1483.59 3763.13 1475.62 3758.62 1474.04 3740.58C1472.94 3728.09 1468.94 3724.25 1456.99 3724.18C1449.28 3724.13 1448.97 3724.71 1448.97 3738.99C1448.97 3762.32 1459.71 3772.92 1491.26 3780.74L1491.26 3780.74C1502.72 3783.58 1547.15 3779.86 1574.39 3773.78C1655.3 3755.72 1762.82 3711.42 1867.53 3653.01L1890.86 3639.99V3669.67V3699.34Z" fill="white"/>
<path d="M2271 3487.87C2279.99 3487.87 2283.96 3485.31 2299.23 3469.64C2336.64 3431.28 2389.11 3338.09 2418.9 3257.09L2432.44 3220.28L2446.8 3225.74C2454.69 3228.74 2466.39 3231.19 2472.79 3231.19C2481.87 3231.19 2484.47 3232.32 2484.59 3236.3C2488.12 3345.12 2494.81 3378.81 2517 3399.5C2532.46 3413.92 2558.59 3418.99 2574.66 3410.67C2587.51 3404.03 2612.42 3374.6 2632.45 3342.38C2642.48 3326.26 2650.69 3311.67 2650.69 3309.96C2650.69 3305.32 2638.29 3301.5 2632.72 3304.42C2630.06 3305.81 2616.62 3320.65 2602.85 3337.38C2577.67 3367.99 2559.12 3385.78 2552.37 3385.78C2540.24 3385.78 2531.47 3349.76 2529.32 3290.99C2528.37 3265.32 2526.4 3239.73 2524.93 3234.11C2519.3 3212.64 2507.43 3205.21 2473.87 3202.15C2441.4 3199.19 2439.89 3197.44 2446.84 3170.8C2457.18 3131.16 2453.54 3114.89 2433.03 3109.01C2412.33 3103.07 2401.89 3120.7 2401.13 3162.9C2400.71 3185.53 2398.82 3194.9 2388.15 3227.07C2358.75 3315.69 2305.97 3418.48 2266.14 3464.67C2255.79 3476.68 2254.12 3480.13 2257.01 3483.61C2258.96 3485.96 2265.25 3487.87 2271 3487.87Z" fill="white"/>
<path d="M3336.75 2377.29C3324.15 2376.08 3321.75 2376.76 3317.61 2382.67C3311.64 2391.19 3315.85 2398.95 3330.54 2406.47V2406.46C3343.6 2413.15 3357.15 2412.94 3365.7 2405.92C3371.22 2401.39 3371.97 2399.25 3369.45 2395.13C3363.52 2385.43 3351.13 2378.67 3336.75 2377.29Z" fill="white"/>
<path d="M3937.05 3787.78C3943.55 3718.5 3971.97 3652.5 4024.62 3584.37C4046.75 3555.74 4105.45 3493.73 4133.12 3469.76L4150.46 3454.74L4148.55 3485.16C4138.53 3644.65 4111.17 3770.11 4066.83 3859.76C4047.69 3898.45 4030.57 3922.51 4012.86 3935.57C4000.9 3944.4 3991.23 3944.82 3978.49 3937.05C3948.68 3918.88 3930.8 3854.47 3937.05 3787.78ZM4115.28 3221.61C4091.75 3256.29 4049.89 3308.29 4030.69 3326.72V3326.72C4001.28 3354.93 3999.79 3354.71 4010.12 3323.71C4026.5 3274.54 4073.53 3204.91 4102.42 3187.05C4114.04 3179.87 4116.47 3181.39 4120.22 3198.15C4122.64 3208.95 4122.08 3211.59 4115.28 3221.61ZM4339.43 3297.1C4346.72 3268.61 4359.61 3244.33 4375.97 3228.27L4388.76 3215.72L4390.64 3223.22C4395.88 3244.08 4376.13 3294.02 4353.82 3316.33C4331.87 3338.28 4329.66 3335.33 4339.43 3297.1ZM3997.97 3961.98C4006.64 3961.02 4018.45 3958.04 4024.22 3955.36C4036.75 3949.53 4070.19 3916.96 4080.46 3900.6C4143.28 3800.51 4181.68 3647.86 4195.32 3444.03L4197.18 3416.23L4215.48 3403.99C4225.55 3397.27 4244.74 3386.46 4258.13 3379.98L4282.48 3368.21L4289.09 3381.2C4296.86 3396.5 4313.5 3413.46 4327.84 3420.71C4355.83 3434.87 4393.85 3438.48 4436.5 3431.04C4518.83 3416.68 4591.97 3365.85 4613.64 3307.93C4620.8 3288.8 4618.84 3284.64 4601.3 3281.8C4590.91 3280.11 4590.68 3280.29 4582.12 3297.21C4569.8 3321.58 4552.91 3339.39 4523.5 3359.06C4495.54 3377.77 4468.49 3389.32 4437.08 3395.97C4411.32 3401.43 4374.36 3401.61 4361.73 3396.33C4351.12 3391.9 4341.7 3378.66 4337.11 3361.73L4334.14 3350.79H4346.46C4374.44 3350.79 4410.45 3320.99 4430.31 3281.39C4439.06 3263.97 4440.13 3259.22 4440.13 3238.03C4440.14 3215.88 4439.52 3213.47 4431.22 3203.03C4412.78 3179.87 4378.98 3171.83 4353.86 3184.65C4311.13 3206.45 4274.66 3281.54 4278.82 3339.14L4280.06 3356.25L4262.39 3362.62C4243.79 3369.32 4210.34 3386.62 4201.69 3394C4196.86 3398.12 4196.58 3396.07 4196.53 3356.35C4196.47 3306.79 4194.16 3259.96 4190.58 3235.57C4188.52 3221.57 4186.23 3216.47 4179.13 3210.05C4174.24 3205.64 4166.98 3202.03 4163 3202.03C4156.72 3202.03 4155.75 3200.72 4155.75 3192.25C4155.75 3157.6 4103.17 3138.26 4066.79 3159.55C4018.61 3187.73 3951.83 3296.49 3950.54 3348.86L3950.12 3365.89L3925.32 3363.98C3911.69 3362.93 3884.13 3360.2 3864.07 3357.91C3844.02 3355.63 3821.71 3353.72 3814.49 3353.68C3790.95 3353.56 3791.81 3350.91 3825.06 3321.43C3866 3285.13 3939.84 3208.78 3947.17 3195.17C3952.46 3185.36 3952.59 3183.69 3948.63 3176.75C3937.09 3156.48 3914.88 3154.39 3856.78 3168.1C3839.13 3172.27 3813.2 3176.54 3799.16 3177.61C3785.11 3178.67 3771.35 3181.2 3768.57 3183.23C3763.8 3186.71 3763.82 3187.25 3768.91 3192.88C3777.13 3201.96 3802.39 3205.94 3840.17 3204.1C3858.31 3203.21 3872.75 3203.6 3872.26 3204.95C3870.96 3208.51 3801.45 3284.22 3791.92 3292.46C3787.49 3296.29 3771.09 3311.63 3755.47 3326.54C3735.4 3345.72 3721.56 3356.27 3708.21 3362.58C3691.21 3370.61 3674.48 3385.04 3674.48 3391.68C3674.48 3398.8 3688.42 3409.59 3699.53 3411.08C3713.8 3412.99 3722.18 3409.14 3746.08 3389.67L3763.21 3375.71L3799.79 3375.64C3872.73 3375.51 3958.49 3380.4 3963.78 3384.99C3976.55 3396.09 4005.88 3400.48 4024.79 3394.12C4053.32 3384.52 4100.84 3342.14 4131.79 3298.69L4145.54 3279.38L4147.37 3299.77C4148.37 3310.98 4149.35 3345.09 4149.54 3375.57L4149.89 3430.99L4131.67 3445.54C4098.39 3472.12 4017.64 3555.3 3992.91 3588.49C3954.41 3640.16 3927.8 3699.56 3916.3 3759.55C3910.44 3790.17 3911.85 3855.74 3918.95 3882.13C3929.92 3922.94 3943.73 3944.23 3966.81 3955.93L3966.8 3955.93C3979.9 3962.57 3984.55 3963.47 3997.97 3961.98Z" fill="white"/>
<path d="M3228.21 2405.51C3228.21 2388.93 3201.3 2379.29 3187.11 2390.78C3180.55 2396.1 3180.51 2396.44 3185.5 2404.06C3188.32 2408.37 3193.51 2413.05 3197.02 2414.46C3211.89 2420.46 3228.21 2415.77 3228.21 2405.51Z" fill="white"/>
<path d="M1255.48 3237.45C1253.66 3246.72 1252.2 3248.2 1243.99 3249.11C1224.07 3251.32 1187.99 3246.7 1175.59 3240.37C1161.46 3233.15 1161.55 3235.79 1173.84 3187.69C1184.57 3145.7 1197.93 3116.3 1220 3086.18C1224.39 3080.18 1210.74 3070.9 1197.4 3070.84C1180.53 3070.74 1165.85 3085.92 1148.37 3121.56C1132.95 3152.99 1130.8 3154.32 1139.27 3127.18C1155.05 3076.62 1201.97 3041.62 1225.16 3063.11C1245.46 3081.92 1257.35 3127.14 1257.47 3185.98C1257.52 3208.44 1256.62 3231.6 1255.48 3237.45ZM1243.34 3294.63C1229.77 3345.05 1212.43 3380.05 1188.41 3405.47V3405.46C1180.45 3413.89 1172.96 3420.78 1171.77 3420.78C1167.47 3420.78 1160.44 3397.61 1157.05 3372.24C1153.7 3347.24 1155.15 3275.14 1159.21 3264.56C1160.53 3261.14 1163 3260.46 1168.62 3261.98C1187.86 3267.17 1201.41 3268.87 1224.89 3268.98L1250.2 3269.11L1243.34 3294.63ZM1636.98 3295.32C1624.59 3290.61 1621.51 3291.85 1613.3 3304.84C1584.74 3350.09 1486.42 3412.04 1443.17 3412.04C1404.7 3412.04 1393.6 3326.86 1421.25 3243.85C1436.82 3197.14 1464.52 3147.89 1486.33 3128.15C1491.75 3123.25 1492.07 3123.31 1494.19 3129.72C1495.41 3133.39 1497.22 3162.62 1498.21 3194.66C1500 3252.69 1500.04 3252.93 1507.12 3256.45C1517.11 3261.42 1522.86 3257.37 1530.28 3240.14C1540.98 3215.26 1546.07 3183.5 1544.61 3150.7C1543.12 3117.25 1539.26 3107.81 1521.05 3093.09C1511.88 3085.68 1506.81 3083.96 1491.25 3082.97C1474.97 3081.93 1470.75 3082.79 1459.28 3089.52C1436.19 3103.05 1404.43 3146.84 1387.47 3188.55C1377.52 3213 1356.88 3226.62 1310.42 3239.38L1290 3244.99L1289.83 3195.07C1289.68 3152.7 1288.67 3141.7 1283.18 3122.31C1266.77 3064.29 1241.68 3038.69 1201.25 3038.69C1165.18 3038.69 1123.39 3078.43 1109.43 3125.99C1102.86 3148.41 1103.39 3183.63 1110.63 3204.21C1115.55 3218.22 1116.02 3223.37 1113.62 3236.95C1108.02 3268.53 1105.07 3325.8 1107.6 3353.7C1112.85 3411.68 1124.68 3438.88 1148.54 3447.85C1151.29 3448.89 1155.38 3449.48 1160.08 3449.69C1159.98 3449.99 1168.72 3450.04 1173.18 3449.75C1177.1 3449.5 1185.41 3449.09 1196.66 3444.4C1219.04 3435.06 1244.57 3400.77 1260.27 3362.45C1269.5 3339.92 1281.35 3299.11 1284.23 3279.95C1286.19 3266.84 1286.8 3266.11 1298.35 3263.23C1319.5 3257.95 1347.13 3248.71 1359.17 3242.9L1370.83 3237.26L1369.01 3243.71C1362.83 3265.57 1358.17 3310.8 1359.8 3333.28C1364.73 3401.7 1390.35 3435.8 1438.67 3438.15C1436.31 3445.88 1433.94 3453.62 1431.57 3461.35C1430.35 3465.34 1431.7 3469.92 1434.61 3472.82C1436.08 3474.29 1437.81 3475.3 1439.81 3475.86C1441.9 3476.42 1443.99 3476.42 1446.08 3475.86C1446.48 3475.8 1446.88 3475.75 1447.29 3475.69C1454.55 3474.74 1461.85 3473.97 1469.16 3473.42C1472.95 3473.14 1476.74 3472.91 1480.53 3472.73C1482.32 3472.65 1484.16 3472.5 1486 3472.42C1485.99 3472.9 1485.98 3473.38 1485.95 3473.85C1485.6 3475.66 1485.1 3477.42 1484.47 3479.14C1482.94 3482.42 1481.05 3485.48 1478.92 3488.4C1475.71 3492.37 1472.1 3495.97 1468.14 3499.19C1463.76 3502.43 1459.07 3505.17 1454.1 3507.4C1448.79 3509.48 1443.28 3510.97 1437.62 3511.76C1434.91 3512.14 1431.88 3514.94 1430.57 3517.18C1429.09 3519.71 1428.47 3523.43 1429.38 3526.27C1430.31 3529.12 1432.07 3531.87 1434.8 3533.31C1435.74 3533.71 1436.68 3534.1 1437.62 3534.5C1439.71 3535.06 1441.8 3535.06 1443.89 3534.5C1463.22 3531.81 1482.08 3521.22 1494.64 3506.29C1502.55 3496.89 1508.94 3485.97 1509.57 3473.42C1509.91 3466.66 1508.09 3458.25 1502.79 3453.62C1499 3450.31 1494.42 3448.87 1489.42 3448.85C1486.57 3448.84 1483.71 3449 1480.86 3449.13C1473.71 3449.46 1466.59 3450.01 1459.49 3450.72C1461.05 3445.61 1462.61 3440.51 1464.17 3435.4C1494.87 3427.93 1538.91 3406.86 1570.45 3383.4C1598.71 3362.38 1627.43 3331.95 1637.18 3312.7L1644.53 3298.19L1636.98 3295.32Z" fill="white"/>
<path d="M485.472 4025.55C486.161 4026.24 486.779 4034.99 486.812 4044.99H486.813C486.899 4062.9 483.393 4072.29 479.169 4065.45C477.053 4062.03 483.177 4023.26 485.472 4025.55ZM481.665 3743.82C487.011 3660.05 490.767 3621.04 493.773 3618.04C497.648 3614.19 547.036 3602.93 549.459 3605.35C550.364 3606.26 549.655 3613.99 547.888 3622.54C546.117 3631.09 542.715 3651.21 540.327 3667.25C537.937 3683.3 533.86 3708.04 531.265 3722.23L526.547 3748.04L506.704 3760.88H506.703C495.789 3767.94 485.261 3773.72 483.308 3773.72C480.624 3773.72 480.221 3766.42 481.665 3743.82ZM508.111 3867.09L508.109 3867.09C502.525 3896.79 496.895 3925.01 495.596 3929.8L493.236 3938.52L491.355 3928.31C487.283 3906.23 480.34 3828.17 481.169 3813.81C482.047 3798.67 482.107 3798.58 499.551 3787.81C509.176 3781.86 518.205 3776.92 519.615 3776.81C523.359 3776.55 519.623 3805.87 508.111 3867.09ZM464.208 3665.8C461.591 3684.24 458.493 3701.13 457.321 3703.32C454.904 3707.84 438.699 3642.82 440.243 3634.8C440.881 3631.48 446.04 3628.49 455.072 3626.18C471.572 3621.97 470.86 3618.89 464.208 3665.8ZM462.921 3856.12C463.083 3877.89 459.772 3885.41 455.689 3872.55C452.964 3863.96 453.381 3818.45 456.229 3813.91C459.543 3808.62 462.716 3828.66 462.921 3856.12ZM409.292 3816.24C371.48 3834.22 326.427 3849.91 293.309 3856.65C265.925 3862.22 214.947 3862.45 199.876 3857.07C172.696 3847.37 158.761 3829.18 158.796 3803.46C158.827 3782.75 166.503 3766.9 187.047 3745.14C220.044 3710.18 268.217 3683.93 348.111 3657.36C376.859 3647.79 405.167 3639.1 411.017 3638.03L421.657 3636.09L424.757 3650.21C426.463 3657.98 432.503 3684.6 438.183 3709.36C443.86 3734.12 448.507 3761.27 448.507 3769.69C448.507 3796.14 446.451 3798.58 409.292 3816.24ZM422.876 2938.06L420.368 2946.81L418.393 2936.96C415.508 2922.56 415.985 2892.85 419.107 2892.85C420.585 2892.85 422.6 2901.05 423.589 2911.08C424.575 2921.1 424.253 2933.24 422.876 2938.06ZM288.168 3306.2C283.116 3323.33 277.907 3339.26 276.593 3341.61C272.447 3349.02 266.821 3334.34 269.095 3322.04C271.435 3309.37 294.463 3266.37 296.167 3271.49C296.82 3273.45 293.221 3289.07 288.168 3306.2ZM509.429 2665.61C522.747 2672.99 527.757 2687.01 526.537 2713.5C525.664 2732.47 523.876 2739.78 517.031 2752.36C512.392 2760.88 504.801 2770.56 500.163 2773.86H500.161C495.521 2777.16 486.072 2780.51 479.16 2781.28C468.299 2782.51 466.004 2781.76 462.229 2775.79C459.829 2771.99 457.007 2760.35 455.96 2749.92C451.328 2703.82 484.371 2651.71 509.429 2665.61ZM504.197 3250.02C505.951 3240.53 509.472 3228.81 512.021 3223.96L516.656 3215.15L518.751 3222.44C523.069 3237.48 521.189 3285.38 514.031 3342.66H514.037C509.969 3375.2 505.465 3404.45 504.025 3407.66C500.155 3416.28 500.319 3271 504.197 3250.02ZM610.901 3054.63C605.163 3066.72 599.772 3076.6 598.924 3076.6C595.616 3076.6 585.345 3052.5 578.307 3028.21C570.815 3002.36 567.215 2959.2 571.939 2951.88C574.931 2947.24 615.681 2985.98 620.793 2998.32C625.964 3010.81 622.587 3030.03 610.901 3054.63ZM554.356 3113.89C540.779 3121.04 529.001 3122.46 530.887 3116.71C532.376 3112.17 552.66 3105.2 560.68 3106.47C565.449 3107.23 564.188 3108.71 554.356 3113.89ZM470.415 4071.27L470.444 4071.27C477.259 4078.8 487.041 4078.64 494.023 4070.9C499.004 4065.37 499.579 4059.85 499.579 4017.67C499.579 3975.24 500.359 3967.87 507.487 3942.89C516.259 3912.15 538.956 3800.57 538.956 3788.18C538.956 3765.8 540.684 3763.62 583.783 3731.83C677.96 3662.36 762.277 3581.41 840.943 3484.96C1002.17 3287.27 1109.22 3067.03 1137.25 2875.34C1142.72 2837.97 1141.93 2751.12 1135.85 2719.95C1130.18 2690.94 1116.81 2651.16 1104.74 2627.42C1075.8 2570.47 1023.77 2520.18 961.004 2488.49C809.852 2412.19 568.328 2430.18 366.864 2532.76C257.848 2588.27 171.312 2666.4 171.484 2709.13C171.537 2721.01 173.419 2724.45 182.439 2729.2C191.391 2733.92 194.775 2731.12 194.775 2718.98C194.775 2706.05 199.887 2696.26 218.048 2674.44C271.081 2610.71 391.776 2540.21 509.788 2504.02C695.163 2447.17 884.915 2458.17 993.975 2532.08C1062.61 2578.59 1101.37 2647.66 1110.93 2740.48C1127.68 2902.99 1043.13 3144.55 890.683 3369.74C831.8 3456.72 752.261 3552.6 687.432 3614.75C638.199 3661.95 552.576 3732.89 549.071 3729.39C548.303 3728.62 550.797 3711.04 554.612 3690.33C558.428 3669.62 563.223 3640.51 565.267 3625.64C568.763 3600.21 569.436 3598.5 576.575 3596.83C618.579 3586.98 678.552 3571.31 682.689 3569.1C690.44 3564.96 685.409 3560.05 674.971 3561.56C669.945 3562.29 645.035 3567.66 619.613 3573.5C594.191 3579.35 572.713 3584.13 571.889 3584.13C571.067 3584.13 571.173 3579.86 572.132 3574.65C573.088 3569.43 575.831 3540.88 578.221 3511.21C583.004 3451.85 584.969 3443.43 607.559 3385.42C649.375 3278.04 661.351 3206.98 645.409 3160.84C642.849 3153.43 634.256 3137.08 626.315 3124.5C618.373 3111.93 611.919 3100.93 611.953 3100.06C611.996 3099.19 620.583 3094.66 631.035 3089.99C653.261 3080.06 673.695 3063.01 685.296 3044.72C691.696 3034.63 693.545 3028.22 693.545 3016.14C693.545 2997.1 686.436 2982.12 657.179 2939.51C645.612 2922.67 630.357 2897.89 623.281 2884.45C607.737 2854.93 593.705 2841.92 565.061 2830.48C544.076 2822.09 521.455 2803.92 521.455 2795.45C521.455 2793.21 519.529 2790.64 517.172 2789.74C504.507 2784.88 511.343 2809.73 526.281 2822.85C531.948 2827.82 547.291 2836.85 560.375 2842.91C573.46 2848.97 585.683 2855.79 587.54 2858.07C589.396 2860.35 599.069 2876.66 609.037 2894.3C619.003 2911.95 632.847 2934.41 639.797 2944.22C657.767 2969.57 676.044 3005.42 676.044 3015.3C676.044 3027.69 671.747 3036.97 659.979 3049.99C649.724 3061.34 621.572 3081.44 619.219 3079.09C618.568 3078.44 622.475 3069.08 627.901 3058.3C649.08 3016.22 645.845 3000.14 608.919 2963.95C594.497 2949.81 581.981 2935.99 581.105 2933.23C580.229 2930.47 581.488 2920.65 583.903 2911.4C589.251 2890.92 585.807 2880.26 573.388 2878.82C561.723 2877.46 555.351 2888.69 557.601 2906.64C558.559 2914.3 559.729 2943.53 560.205 2971.6C561.127 3026.14 563.879 3039.41 581.456 3074.1L588.577 3088.15L581.996 3089.51C578.376 3090.26 569.071 3091.7 561.316 3092.7C533.405 3096.33 512.704 3106.91 512.704 3117.54C512.704 3138.45 557.083 3133.72 585.552 3109.76L595.011 3101.8L600.319 3108.84C634.788 3154.54 641.312 3188.59 627.953 3253.07C620.944 3286.9 610.772 3317.94 576.331 3410.58C565.364 3440.07 560.297 3467.61 559.691 3501C559.121 3532.39 553.939 3584.84 551.151 3587.44C548.771 3589.66 494.744 3602.14 493.383 3600.78C491.325 3598.72 498.811 3527.83 505.305 3487.87C509.085 3464.61 513.041 3437.7 514.092 3428.08C515.144 3418.45 519.415 3386.95 523.581 3358.08C532.475 3296.46 534.625 3218.19 527.659 3209.78C520.703 3201.38 508.124 3203.68 501.383 3214.59C487.619 3236.86 485.861 3252.26 483.493 3371.2C481.192 3486.89 475.717 3601.6 472.332 3605.04C470.585 3606.81 437.307 3616.27 436.541 3615.21C436.363 3614.96 435.219 3584.56 433.999 3547.67C431.567 3474.03 428.505 3456.41 404.847 3379.95C385.276 3316.7 380.501 3291.87 380.363 3253.07C380.272 3224.47 381.7 3212.27 388.168 3186.37C397.049 3150.8 400.445 3142.54 418.663 3112.2C443.727 3070.46 447.908 3053.04 440.856 3019.72C437.801 3005.28 435.267 2975.47 434.205 2941.46C432.648 2891.57 431.971 2886.15 426.828 2882.4C417.879 2875.86 411.005 2877.51 404.537 2887.74C399.464 2895.77 398.788 2900.34 400.121 2917.64C400.987 2928.87 405.081 2949.22 409.22 2962.85C419.009 2995.11 418.777 3005.6 407.572 3037.23C395.28 3071.93 345.552 3169.46 337.667 3174.34C336.313 3175.17 338.433 3165.67 342.377 3153.21C359.089 3100.45 370.133 3059.67 372.793 3040.93C374.357 3029.91 375.58 2986.21 375.512 2943.82C375.38 2861.33 375.896 2857.94 390.679 2844.14C398.377 2836.95 424.636 2824.67 439.019 2821.54C449.323 2819.29 460.2 2807.76 460.2 2799.08C460.2 2794.34 461.743 2793.85 471.729 2795.45C497.921 2799.64 520.344 2786.48 533.285 2759.32C543.148 2738.59 543.036 2698.61 533.044 2678.47C527.056 2666.4 523.491 2662.95 512.295 2658.38C503.897 2654.94 495.905 2653.59 491.201 2654.77C468.596 2660.44 446.547 2696.81 443.443 2733.53L441.685 2754.3L437.669 2744.5C428.035 2720.98 430.292 2676.77 442.529 2649.3C450.051 2632.41 467.155 2616.95 491.791 2604.78C510.864 2595.35 516.433 2593.99 540.001 2593C564.171 2591.98 567.575 2592.52 576.639 2598.71C582.133 2602.47 589.813 2611.45 593.705 2618.67C600.62 2631.49 600.727 2632.74 598.415 2672.63C597.112 2695.09 596.072 2725.93 596.103 2741.18C596.153 2765.63 597.103 2770.71 604.187 2784.45C613.919 2803.33 627.535 2817.22 665.817 2847.34C720.6 2890.44 738.197 2910.6 749.06 2942.68C758.268 2969.87 754.437 2996.08 735.029 3038.69C695.629 3125.18 688.388 3152.5 696.749 3183.07C698.505 3189.49 706.661 3209.83 714.875 3228.28C736.283 3276.36 735.981 3283.95 710.548 3337.66C699.913 3360.12 686.399 3390.96 680.515 3406.2C662.827 3452.03 656.373 3487.87 665.817 3487.87C668.345 3487.87 670.192 3485.23 670.192 3481.63C670.192 3461.98 695.668 3397.53 724.739 3343.65C754.275 3288.89 754.788 3277.66 730.248 3223C711.603 3181.48 709.207 3166.75 716.44 3138.15C719.645 3125.47 732.151 3093.64 744.231 3067.42C779.421 2991.01 782.451 2967.22 762.185 2926.39C748.44 2898.7 734.412 2883.32 692.6 2850.12C613.757 2787.52 609.62 2779.37 615.511 2698.23C617.863 2665.81 617.687 2652.82 614.708 2638.78C609.631 2614.86 596.668 2596.05 579.052 2587.05C552.205 2573.33 506.5 2576.32 471.443 2594.08C453.475 2603.19 431.367 2624.68 424.083 2640.13C415.347 2658.65 412.137 2689.04 416.377 2713.08C422.437 2747.44 424.84 2754.67 435.447 2770.43C451.623 2794.46 448.443 2806.32 423.724 2814.13C402.407 2820.86 378.983 2834.28 371.696 2843.94C359.583 2859.99 358.129 2872 358.112 2956.03C358.093 3045.89 356.864 3055.3 336.632 3120.36C329.4 3143.62 320.009 3176.42 315.767 3193.25C310.04 3215.96 304.436 3229.88 294.025 3247.21C259.808 3304.19 251.765 3330.52 263.465 3347.22C269.269 3355.5 283.72 3356.04 287.957 3348.12C293.02 3338.66 304.949 3298.57 313.751 3261.44C321.011 3230.81 324.319 3222.57 338.355 3200.18C370.113 3149.53 407.168 3078.54 418.091 3047.44L424.747 3028.48L424.885 3043.06C425.071 3061.45 416.46 3082.71 395.144 3116.49C386.161 3130.72 374.477 3151.53 369.179 3162.72C360.211 3181.66 359.477 3185.5 358.588 3218.23C357.769 3248.38 358.921 3259.8 366.676 3298.44C371.649 3323.22 380.212 3357.93 385.703 3375.58C397.749 3414.3 412.403 3472.76 414.576 3490.79C415.448 3498.01 416.548 3530 417.019 3561.89L417.88 3619.86L372.671 3632.4C269.245 3661.07 216.109 3686.88 173.497 3729.14C129.173 3773.1 128.376 3828.71 171.657 3857.36C218.728 3888.51 316.471 3878.29 416.096 3831.8C429.553 3825.52 441.475 3820.39 442.587 3820.39C443.7 3820.39 444.031 3827.37 443.324 3835.9C441.796 3854.32 447.147 3882.78 453.296 3888.93C455.703 3891.34 460.629 3893.31 464.241 3893.31C470.457 3893.31 471.071 3895.31 475.7 3930.65C481.847 3977.58 481.769 3983.18 474.601 4009.98C465.443 4044.21 464.073 4064.26 470.415 4071.27Z" fill="white"/>
<path d="M5374.77 3060.81C5369.49 3067.17 5374.35 3074.27 5386.83 3078.42C5399.02 3082.47 5412.89 3078.43 5412.89 3070.82C5412.89 3058.69 5383.03 3050.85 5374.77 3060.81Z" fill="white"/>
<path d="M5645.68 3691.06C5580.53 3659.11 5503.79 3609.37 5382.26 3520.34C5328.31 3480.81 5303.39 3461.25 5201.42 3378.41C5064.7 3267.34 4972.44 3199.66 4922.87 3174.07C4914.04 3169.52 4906.32 3165.45 4905.7 3165.04C4905.08 3164.62 4923.49 3144.23 4946.6 3119.72C5033.53 3027.55 5101.62 2945.2 5195.01 2819.27C5293.46 2686.5 5413.47 2505.24 5442.59 2445.3C5449.25 2431.59 5449.26 2431.46 5443.51 2427.26C5440.33 2424.93 5435.09 2423.4 5431.87 2423.86C5425.02 2424.84 5420.64 2430.72 5297.36 2604.08C5116.33 2858.67 5020.08 2979.31 4895.74 3107.5C4874.09 3129.81 4855.4 3147.11 4854.19 3145.94C4852 3143.8 4856.72 2902.26 4861.73 2760.13C4865.52 2652.34 4865.22 2592.49 4860.84 2583.9C4855.93 2574.26 4841.5 2569.49 4836.78 2575.94C4833.2 2580.83 4829.88 2608.91 4822.41 2697.42C4814.91 2786.39 4812.92 2829.94 4804.4 3092.76L4802.7 3145.38L4794.49 3150.09C4789.97 3152.68 4784.01 3158.27 4781.23 3162.5C4773.94 3173.63 4779.5 3191.05 4793.17 3199.9L4803.21 3206.4L4803.24 3321.87C4803.29 3487.38 4806.07 3577.75 4811.27 3582.95C4815.6 3587.28 4828.38 3586.44 4833.33 3581.5C4836.36 3578.46 4841.78 3504.46 4839.42 3498.3C4838.64 3496.29 4839.98 3455.38 4842.39 3407.4C4844.8 3359.42 4847.67 3293.83 4848.76 3261.65L4850.75 3203.15L4861.6 3196.91L4872.44 3190.67L4892.48 3202.38C4924.92 3221.33 4963.45 3249.99 5057.45 3325.06C5230.13 3462.97 5372.82 3566.58 5498.6 3645.38C5559.83 3683.74 5600.12 3705.04 5641.86 3721.13L5641.86 3721.13C5657.9 3727.32 5675.79 3732.49 5681.6 3732.63C5692.92 3732.9 5700.47 3727.02 5697.78 3720.02C5696.9 3717.71 5673.45 3704.68 5645.68 3691.06Z" fill="white"/>
<path d="M9473.25 3094C9480.09 3090.34 9480.31 3086.18 9474.31 3074.14C9468.79 3063.08 9457.58 3059.38 9447.3 3065.22C9430.56 3074.73 9431.72 3086.8 9450.01 3093.21C9462.58 3097.62 9466.26 3097.75 9473.25 3094Z" fill="white"/>
<path d="M5475.17 3077.5C5478.61 3078.18 5481.85 3078.92 5482.35 3079.12C5485.18 3080.35 5494.56 3072.86 5494.56 3069.38C5494.56 3058.56 5464.35 3050.82 5460.57 3060.67C5458.43 3066.23 5466.79 3075.86 5475.17 3077.5Z" fill="white"/>
<path d="M6020.7 3104.5C6018.52 3098.82 6001.53 3091.19 5991.06 3091.19C5974.61 3091.19 5971.7 3105.61 5987.01 3111.22C6003.48 3117.25 6024.02 3113.15 6020.7 3104.5Z" fill="white"/>
<path d="M5444 3242.53C5440.79 3287.81 5422.97 3334.41 5399.12 3359.91C5374.11 3386.65 5367.65 3376.66 5367.73 3311.4C5367.76 3280.9 5369.34 3260.14 5372.95 3242.86C5377.66 3220.35 5386 3190.54 5388.36 3187.8C5388.88 3187.2 5393.49 3190.23 5398.59 3194.53C5409.74 3203.9 5434.1 3216.6 5440.93 3216.6C5445.31 3216.6 5445.64 3219.45 5444 3242.53ZM5422.61 3151.19C5428.39 3153.41 5441.05 3179.13 5443.68 3194C5445.93 3206.69 5444.84 3207.03 5428.15 3198.77C5412.3 3190.93 5404.14 3180.51 5404.14 3168.15C5404.14 3157.3 5414.27 3148 5422.61 3151.19ZM7014.17 3257.45C7005.33 3257.45 7004.62 3258.22 6973.97 3300.94C6960.47 3319.75 6933.82 3339.79 6915.55 3344.86C6896.42 3350.18 6884.8 3348.68 6876.54 3339.85C6858.49 3320.56 6853.81 3299.05 6853.69 3234.7C6853.62 3198.97 6852.57 3184.64 6849.75 3180.92C6845.67 3175.55 6827.73 3167.03 6820.5 3167.03C6810.59 3167.03 6800.79 3181.29 6786.42 3216.62C6757.49 3287.73 6730.89 3335.89 6707.73 3359.07C6698.97 3367.84 6697.78 3368.27 6695.88 3363.45C6692.07 3353.76 6693.27 3309.43 6698.39 3270.7C6701.16 3249.78 6703.46 3223.47 6703.5 3212.24L6703.57 3191.83L6692.24 3186.29C6674.01 3177.39 6666.76 3181.71 6660.82 3204.99C6658.16 3215.4 6654.28 3235.53 6652.19 3249.73L6648.41 3275.55L6623.49 3298.88C6585.06 3334.85 6529.07 3370.38 6500.8 3376.73C6485.95 3380.07 6479.58 3375.08 6474.41 3356.05C6463.5 3315.87 6492.24 3231.19 6524.49 3208.51C6529.21 3205.19 6530.44 3206.01 6535.47 3215.87C6538.58 3221.97 6542.08 3233.5 6543.23 3241.48C6545.71 3258.57 6548.82 3263.29 6557.63 3263.29C6570.65 3263.29 6581.37 3240.13 6578.82 3217.51C6574.84 3182.25 6528.27 3158.82 6495.43 3175.57C6482.11 3182.37 6465.43 3200.29 6456.95 3216.91C6453.52 3223.64 6445.91 3234.41 6440.05 3240.86C6434.19 3247.31 6422.27 3260.57 6413.57 3270.33C6386.57 3300.65 6341.77 3343.31 6330.69 3349.28C6323.18 3353.32 6319.21 3354.07 6316.99 3351.86C6310.39 3345.26 6305.57 3315.72 6303.76 3270.73C6302.72 3244.98 6300.38 3220.75 6298.55 3216.88C6292.58 3204.29 6280.67 3198.03 6260.18 3196.73L6241.25 3195.52V3183.17C6241.25 3157.96 6228.69 3142.8 6212.13 3148.06C6199.68 3152.01 6196.69 3175.98 6206.3 3194.82L6212.17 3206.35L6205.98 3237C6198.49 3274.15 6182.9 3322.81 6172.19 3342.47C6163.8 3357.89 6144.8 3377.04 6137.9 3377.04C6132.22 3377.04 6123.33 3363.89 6117.65 3347.08C6112.17 3330.87 6110.21 3309.76 6108.83 3252.07C6107.94 3215.04 6107.16 3209.56 6102.05 3204.45C6094.57 3196.97 6073.88 3194.01 6067.21 3199.46C6064.5 3201.68 6053.96 3221.21 6043.78 3242.87C6019.34 3294.88 6003.47 3325.39 5990.69 3344.95L5980.2 3361L5979.34 3330.37C5978.87 3313.53 5980.57 3277.27 5983.13 3249.8C5985.69 3222.33 5986.92 3196.38 5985.86 3192.14C5984.79 3187.91 5980.61 3181.83 5976.57 3178.65C5968.85 3172.58 5951.2 3170.79 5948.13 3175.76C5947.14 3177.36 5943.07 3195.37 5939.07 3215.79L5931.82 3252.91L5906.63 3286.54C5880.81 3321.01 5834.07 3371.2 5827.79 3371.2C5822.3 3371.2 5812.87 3350.08 5807.97 3326.79C5805.51 3315.12 5802.25 3284.57 5800.71 3258.91C5796.04 3180.76 5794.01 3173.93 5773.49 3167.15C5754.08 3160.75 5741.14 3172.83 5718.19 3218.8C5711.59 3232.04 5705.35 3242.87 5704.33 3242.87C5703.32 3242.87 5701.65 3233.91 5700.64 3222.96C5697.59 3190.22 5691.2 3176.66 5674.82 3168.19C5662.01 3161.56 5650.46 3163.14 5639.18 3173.04C5633.59 3177.95 5628.16 3184.63 5627.13 3187.88C5625.27 3193.73 5625.22 3193.73 5618.97 3188.05C5601.78 3172.41 5584.67 3171.74 5556.7 3185.61C5530.97 3198.36 5511.08 3204.69 5493.74 3205.63L5479.79 3206.39L5473.22 3187.08C5466.39 3166.97 5454.95 3149.43 5444.05 3142.33C5440.55 3140.05 5431.73 3136.6 5424.45 3134.66C5412.95 3131.6 5409.76 3131.84 5399.93 3136.5C5393.15 3139.72 5387.44 3145.01 5385.67 3149.72C5383.01 3156.76 5381.57 3157.42 5371.74 3156.1C5356.23 3154.02 5347.99 3163.91 5337.35 3197.34C5319.99 3251.88 5314.06 3325.39 5324.25 3359.7C5336.36 3400.48 5380.51 3417.68 5417.48 3396.01C5450.99 3376.37 5475.93 3319.43 5479.15 3255.25L5480.79 3222.43L5500.07 3222.4C5510.67 3222.38 5531.76 3219.8 5546.92 3216.67C5562.09 3213.55 5575 3211.49 5575.62 3212.11C5576.23 3212.72 5575.31 3247.69 5573.57 3289.82C5570.01 3376.15 5570.19 3377.19 5590.05 3382.7C5613 3389.07 5621.22 3384.04 5624.15 3361.82C5631.18 3308.61 5656.12 3214.16 5660.9 3222.69C5662.24 3225.1 5664.95 3246.7 5666.9 3270.69C5671.21 3323.64 5674.04 3332.21 5688.05 3334.84C5706.34 3338.27 5708.6 3335.89 5720.71 3300.51C5731.34 3269.46 5758.92 3208.73 5761.31 3211.12C5761.92 3211.74 5763.29 3229.96 5764.34 3251.61C5768.77 3343.03 5783.33 3381.53 5817.31 3391.67C5844.29 3399.72 5864.01 3386.41 5904.29 3332.97L5925.41 3304.96L5927.19 3334.43C5928.18 3350.64 5930.38 3368.77 5932.09 3374.72C5936.36 3389.56 5949.98 3402.38 5964.95 3405.65L5964.96 3405.67C5997.75 3412.82 6018.38 3395.17 6050.04 3332.86C6060.35 3312.57 6069.53 3296.71 6070.43 3297.61C6071.34 3298.52 6072.08 3303.12 6072.08 3307.83C6072.08 3321.45 6080.63 3350.97 6089.1 3366.61C6108.17 3401.83 6151.74 3410.65 6179.58 3384.92C6201 3365.13 6219.69 3315.38 6235.42 3236.31C6237.25 3227.08 6239.81 3219.53 6241.1 3219.53C6242.39 3219.53 6247.55 3220.36 6252.56 3221.36L6261.67 3223.18L6261.73 3258.55C6261.86 3337.98 6275.05 3371.44 6310.28 3381.68C6321.95 3385.07 6328.12 3385.4 6336.7 3383.09C6351.51 3379.11 6380.51 3354.72 6407.51 3323.55L6429.39 3298.29L6431.06 3326.73C6433.6 3369.93 6446.54 3390.35 6477.07 3399.3C6497.85 3405.39 6512.76 3402.84 6542.06 3388.17C6566.21 3376.08 6615.05 3341.09 6630.47 3324.83C6635.18 3319.86 6639.92 3315.79 6641 3315.79C6642.09 3315.79 6643.85 3323.34 6644.93 3332.56C6648.12 3359.9 6652.31 3371.22 6663.66 3383.14C6670.91 3390.75 6678.82 3395.56 6688 3397.93C6723.09 3407.01 6750.23 3381.71 6797.25 3296.1C6801.87 3287.68 6806.47 3280.79 6807.47 3280.79C6808.47 3280.79 6810.09 3285.71 6811.07 3291.73C6813.84 3308.63 6828.57 3337.02 6840.68 3348.78C6853.7 3361.42 6878.04 3371.21 6896.47 3371.21C6938.35 3371.21 6978.33 3343.91 7005.4 3296.83C7009.09 3290.41 7015.33 3280.32 7019.27 3274.4C7027.51 3262.01 7026.13 3257.45 7014.17 3257.45Z" fill="white"/>
<path d="M6068.1 3111.39C6076.17 3117.74 6096.2 3119.62 6103.89 3114.75C6106.14 3113.32 6108.23 3107.99 6108.54 3102.9C6109.33 3089.64 6099.93 3084.01 6081.57 3086.75C6073.94 3087.88 6066.07 3090.16 6064.06 3091.81C6058.16 3096.67 6059.85 3104.91 6068.1 3111.39Z" fill="white"/>
<path d="M7753.39 3286.91C7743.14 3302.31 7729.4 3320.69 7722.87 3327.74L7710.99 3340.57L7712.83 3318.99C7717.59 3263.24 7750.74 3186.47 7784.06 3154.03C7797.93 3140.53 7800.41 3141.72 7804.61 3163.87C7811.17 3198.43 7809.32 3202.87 7753.39 3286.91ZM8760.01 3191.74C8764.33 3186.37 8764.53 3187.22 8762.87 3204.15C8760.85 3224.71 8753.54 3247.85 8743.95 3264C8740.38 3270.02 8736.81 3274.94 8736.03 3274.94C8730.89 3274.94 8752 3201.71 8760.01 3191.74ZM9851.66 3189.67C9844.63 3187.33 9839.19 3190.07 9802.07 3214.64C9749.6 3249.37 9696.25 3280.1 9629.12 3314.26C9558.76 3350.06 9526.62 3362.63 9500.61 3364.55C9481.35 3365.96 9479.74 3365.62 9475.53 3359.15C9461.63 3337.78 9460.12 3297.26 9470.05 3212.23L9476.19 3159.73L9468.63 3153.17C9461.07 3146.6 9443.38 3144.24 9436.15 3148.85C9434.29 3150.03 9431.85 3156.24 9430.73 3162.65C9427.74 3179.82 9417.34 3194.11 9382.9 3228.39C9320.03 3290.98 9259.93 3332.47 9227.63 3335.58C9214.63 3336.83 9213.75 3336.44 9209.03 3327.32C9197.31 3304.65 9201.56 3264.17 9220.56 3217.57C9232.73 3187.71 9245.85 3165.08 9260.64 3148.45L9271.36 3136.4L9275.96 3147.24C9281.71 3160.81 9281.88 3187.96 9276.32 3206.43C9271.51 3222.41 9272.34 3225.36 9281.64 3225.36C9288.84 3225.36 9296.4 3216.6 9306.86 3196.1C9315.52 3179.15 9317.94 3149.19 9311.83 3134.59C9300.93 3108.48 9264.54 3097.51 9238.84 3112.57C9215.19 3126.43 9186.1 3173.47 9169.76 3224.27C9160.36 3253.51 9150.1 3267.72 9108.13 3309.66C9084.48 3333.28 9058.76 3353.7 9052.65 3353.7C9045.14 3353.7 9042.99 3337.38 9041.31 3267.65C9039.35 3185.92 9038.04 3179.99 9018.96 3167.02C9009.5 3160.59 9005.45 3159.79 8984.7 3160.21L8961.17 3160.7V3146.44C8961.17 3130.06 8955.13 3122.09 8940.37 3119.03C8933.26 3117.55 8929.5 3118.61 8923.44 3123.84C8909.47 3135.89 8909.02 3155.08 8922.26 3173.29C8925.11 3177.2 8923.98 3182.39 8916.26 3201C8889.11 3266.41 8845.96 3318.51 8800.19 3341.13C8764.18 3358.93 8746.26 3354.34 8738.19 3325.25C8733.39 3308 8734.21 3301.19 8741.07 3301.19C8759.46 3301.19 8789.74 3273.09 8805.22 3241.64C8821.17 3209.23 8819.74 3177.23 8801.4 3156.34C8782.96 3135.34 8751.9 3130.98 8733.82 3146.85C8725.08 3154.53 8710.3 3180.04 8704.98 3196.63C8704.13 3199.29 8693.17 3208.29 8680.63 3216.64C8668.08 3224.99 8651.76 3236.87 8644.35 3243.02L8630.88 3254.22L8615.95 3231.77C8607.74 3219.42 8596.93 3203.87 8591.92 3197.21L8582.83 3185.11L8593.34 3166.32C8599.12 3155.99 8604.67 3141.52 8605.68 3134.17C8607.28 3122.45 8606.6 3119.91 8600.1 3113.41C8584.39 3097.71 8563.54 3099.69 8546.15 3118.55C8531.68 3134.25 8528.62 3148.32 8535.36 3168.18C8540.05 3181.99 8540.02 3182.27 8532.7 3192.82C8490.86 3253.11 8423.62 3318.98 8411.52 3311.51C8410.12 3310.65 8406.89 3303.8 8404.33 3296.3C8400.83 3286.01 8399.68 3270.97 8399.68 3235.21C8399.68 3189.49 8399.45 3187.61 8393.2 3183.23C8384.3 3177 8366.77 3177.39 8360.83 3183.95C8358.21 3186.84 8349.6 3202.92 8341.69 3219.68C8324.16 3256.81 8305.1 3290.9 8295.29 3302.65L8287.98 3311.4L8289.55 3283.69C8290.41 3268.45 8295.35 3233.27 8300.53 3205.51C8309.67 3156.54 8309.78 3154.91 8304.5 3150.91C8301.5 3148.65 8294.06 3146.73 8287.97 3146.7C8277.97 3146.61 8276.45 3147.63 8272.52 3157.03C8270.13 3162.76 8266.08 3176.87 8263.53 3188.38C8260.08 3203.94 8255.47 3214.18 8245.59 3228.27C8220.07 3264.63 8147.8 3330.36 8133.33 3330.36C8126.55 3330.36 8124.57 3311.17 8124.29 3242.35C8124.06 3186.16 8123.63 3181.48 8118 3173.8C8106.78 3158.49 8095.36 3154.88 8064.98 3157.04C8041.64 3158.71 8038 3158.35 8038 3154.41C8038 3144.54 8017.95 3137.45 8004.56 3142.59C8000.53 3144.14 8000.1 3147.44 8001.72 3163.88C8003.44 3181.36 8002.55 3186.57 7992.99 3215.16C7968.62 3287.98 7934.68 3337.71 7899.23 3352.52C7885.05 3358.44 7876.96 3354.45 7868.75 3337.51C7860.26 3319.96 7857.2 3296.87 7857.17 3250.34C7857.16 3212.63 7856.7 3209.2 7850.82 3202.94C7847.33 3199.23 7842.73 3196.19 7840.61 3196.19C7835.94 3196.19 7835.89 3197.74 7841.15 3180.41C7843.54 3172.54 7845.49 3159.79 7845.49 3152.07C7845.49 3140.43 7843.89 3136.24 7836.04 3127.29C7812.23 3100.18 7776.38 3098.71 7748 3123.68C7712.97 3154.52 7679.89 3225.69 7668.59 3294.57C7659.93 3347.3 7669.06 3373.14 7698.55 3379.43C7730.82 3386.31 7759.1 3363.41 7801.43 3296.12L7818.39 3269.17L7820.26 3290.29C7824.66 3339.76 7845.14 3369.99 7879.04 3377.03C7909.3 3383.31 7933.89 3373.25 7962.19 3342.99C7993.08 3309.98 8024.41 3246.33 8036.43 3192.18C8038.17 3184.36 8039 3183.92 8049.08 3185.59C8055.02 3186.57 8063.48 3187.38 8067.9 3187.41L8075.92 3187.44V3250.04C8075.92 3306.07 8076.55 3314.32 8081.92 3328.67C8088.66 3346.7 8099.98 3357.83 8116.11 3362.32C8148.06 3371.19 8171.75 3359.96 8217.94 3314.08L8250.92 3281.3V3295.71C8250.92 3324.37 8262.81 3339.11 8285.93 3339.11C8307.39 3339.11 8317.8 3329.53 8344.27 3285.44C8353.88 3269.42 8362.19 3258.38 8362.91 3260.64C8363.62 3262.89 8365.01 3271.55 8365.98 3279.87C8370.25 3316.38 8386.26 3333.61 8416.37 3334.11C8429.43 3334.33 8436.74 3332.57 8448.86 3326.33C8467.63 3316.65 8506.92 3279.43 8536.75 3243.08C8548.7 3228.52 8559.44 3216.6 8560.64 3216.6C8565.84 3216.6 8584.09 3261.43 8585.58 3277.89L8587.14 3295.04L8566.14 3317.8C8543.34 3342.52 8528.78 3362.77 8526.08 3373.54C8523.46 3383.97 8529.5 3393.95 8540.3 3397.07L8540.31 3397.07C8563.27 3403.69 8577.35 3398.48 8600.48 3374.78C8619.95 3354.84 8632.5 3330.7 8636.97 3304.61L8640.19 3285.77L8666.2 3262.79C8680.5 3250.15 8692.49 3240.17 8692.84 3240.61C8693.2 3241.04 8692.39 3251.25 8691.06 3263.28C8686.94 3300.48 8695.54 3337.17 8712.84 3356.17C8726.09 3370.71 8740.26 3375.5 8770.25 3375.53C8796.62 3375.57 8799.28 3374.99 8820.42 3364.55C8870.79 3339.67 8922.05 3274.82 8949.55 3201.17L8954.77 3187.18L8972.43 3188.04C8990.08 3188.9 8990.1 3188.91 8992.11 3199.11C8993.21 3204.72 8994.7 3234.26 8995.42 3264.74C8996.41 3306.47 8998.05 3324.75 9002.05 3338.78C9008.89 3362.72 9020.83 3375.27 9040.85 3379.56C9067.92 3385.37 9081.23 3377.84 9125.72 3331.56C9151.8 3304.43 9158.05 3299.23 9158.08 3304.67C9158.13 3315.52 9171.03 3340.16 9181.1 3348.64C9186.22 3352.94 9195.92 3357.95 9202.67 3359.78C9220.19 3364.52 9250.27 3361.7 9265.97 3353.84C9301.76 3335.93 9359.22 3290.19 9397.13 3249.45L9420.91 3223.9L9419.03 3242.86C9415.26 3280.97 9416.49 3325.18 9421.83 3343.42C9435.2 3389 9486.15 3406.41 9545.99 3385.85C9622.18 3359.66 9863.33 3214.31 9860.25 3196.43C9859.86 3194.16 9855.99 3191.12 9851.66 3189.67Z" fill="white"/>
<path d="M8302.86 3748.82C8261.44 3747.59 8199.96 3725.91 8099.52 3677.13C7990.82 3624.34 7876.16 3559.45 7731.74 3468.96C7629.5 3404.91 7368.16 3231.91 7304.18 3185.93L7271.85 3162.69L7290.62 3150.37C7340.97 3117.29 7416.96 3045.75 7525.4 2929.31C7645.73 2800.09 7789.63 2617.49 7906.14 2446.15L7915.36 2432.6L7909.55 2425.23C7906.37 2421.17 7899.71 2416.97 7894.77 2415.88C7887.38 2414.26 7884.24 2415.38 7876.98 2422.22C7864.17 2434.29 7832.22 2474.23 7753.66 2576.37C7599.31 2777.06 7525.42 2864.59 7413.87 2978.89C7328.38 3066.48 7268.47 3121.15 7244.23 3133.69C7236.92 3137.47 7234.03 3137.57 7225.1 3134.35L7214.58 3130.57L7216.53 3056.66C7218.64 2976.56 7223.99 2863.53 7233.03 2707.63C7240.46 2579.78 7240.59 2545.35 7233.69 2539.14C7226.2 2532.38 7214.18 2530.06 7210.38 2534.64C7202.23 2544.46 7185.1 2720 7175.99 2887.06C7164.03 3106.25 7164.9 3486.67 7177.69 3632.25C7182.57 3687.79 7186.53 3696.44 7203.36 3688.39C7211.03 3684.72 7211.1 3684.39 7211.91 3648.99C7212.64 3617.28 7212.19 3613.29 7207.86 3613.29C7203.39 3613.29 7203.13 3605.66 7204.63 3517.77C7206.77 3392.04 7212.97 3168.81 7214.35 3167.28C7216.93 3164.43 7233.32 3175.03 7271.94 3204.55C7385.2 3291.11 7579.35 3420 7747.78 3520.45C7967.78 3651.65 8126.95 3729.93 8236.34 3760.72C8256.6 3766.43 8266.91 3767.59 8292.73 3767.07C8320.24 3766.51 8324.86 3765.69 8328.47 3760.75C8334.83 3752.05 8329.6 3749.61 8302.86 3748.82Z" fill="white"/>
<path d="M6811.09 3116.63C6821.51 3109.01 6805.7 3094.1 6787.2 3094.1C6769.93 3094.1 6768.41 3108.99 6784.94 3116.19C6796.46 3121.2 6804.65 3121.34 6811.09 3116.63Z" fill="white"/>
<path d="M6746.72 3114.25C6748.88 3110.79 6747.86 3107.21 6742.75 3100.29C6732.64 3086.62 6717.95 3084.67 6703.68 3095.11C6698.73 3098.73 6698.43 3100.32 6701.47 3106.99C6703.4 3111.22 6707.94 3115.91 6711.56 3117.4C6721.7 3121.58 6743.34 3119.64 6746.72 3114.25Z" fill="white"/>
<path d="M1690.8 3375.88C1698.7 3366.36 1671.61 3356.81 1662.52 3365.9C1659.84 3368.57 1660.15 3370.57 1663.84 3374.65C1669.54 3380.95 1685.98 3381.7 1690.8 3375.88Z" fill="white"/>
<path d="M2848.08 3063.48C2848.08 2951.47 2868.08 2864.59 2917.25 2763.05C2977.26 2639.12 3050.81 2557.55 3142.17 2513.64C3193.7 2488.87 3232.12 2480.14 3288 2480.52C3336.13 2480.84 3369.22 2488.15 3410.79 2507.63C3496.67 2547.88 3577.74 2633.03 3623.84 2731.42C3685.77 2863.61 3697.26 3023.17 3654.31 3154.61C3634.01 3216.7 3609.7 3265.71 3567.85 3328.91C3526.15 3391.87 3489.61 3435.06 3433.84 3487.3C3369.98 3547.14 3305.69 3584.63 3245.13 3597.38C3160.08 3615.26 3076.36 3576.1 3022.15 3493.05C2909.02 3319.76 2940.69 2965.43 3089.79 2736.16C3127.36 2678.38 3181.23 2618.19 3231.16 2578.18C3259.46 2555.51 3273.01 2547.35 3287.27 2544.39C3297.29 2542.31 3297.47 2537.14 3287.83 2528.08C3281.6 2522.23 3277.33 2521.04 3262.1 2521.01C3246.46 2520.96 3240.29 2522.72 3218.96 2533.28C3140.31 2572.23 3055.03 2662.1 2995.36 2768.91C2967.53 2818.74 2928.3 2914.56 2920.74 2951.18C2919.91 2955.19 2915.84 2971.45 2911.69 2987.3C2894.87 3051.5 2882.09 3160.34 2884.5 3218.8C2885.04 3232.04 2884.67 3242.87 2883.68 3242.87C2880.69 3242.86 2867.48 3210.19 2861.16 3187.16C2851.21 3150.92 2848.09 3121.36 2848.08 3063.48ZM2889.86 3291.45C2889.86 3297.21 2893.16 3318.19 2897.18 3338.07C2916.92 3435.57 2951.88 3504.22 3009.68 3558.97C3057.37 3604.14 3111.78 3628.55 3178.62 3634.75V3634.75C3281.64 3644.3 3393.01 3590.57 3499.78 3479.82C3618.36 3356.82 3693.3 3217.78 3713.99 3082.44C3732.25 2962.92 3712 2836.7 3656.88 2726.59C3587.02 2587 3471.32 2490.4 3340.51 2462.45C3308.9 2455.69 3246.83 2455.56 3213.01 2462.17C3080.39 2488.1 2969.46 2582.38 2893.19 2734C2841.8 2836.16 2819.77 2929.32 2819.58 3045.34C2819.4 3154.33 2836.73 3221.15 2876.93 3266.41C2887.12 3277.89 2889.86 3283.19 2889.86 3291.45Z" fill="white"/>
<path d="M2802.11 4110.84H2824.85V4195.78H2825.64C2830.34 4188.99 2835.05 4182.71 2839.49 4176.96L2893.33 4110.84H2921.56L2857.79 4185.59L2926.53 4287H2899.61L2841.84 4200.49L2824.85 4219.83V4287H2802.11V4110.84Z" fill="white"/>
<path d="M3098.25 4213.82L3080.74 4163.11C3076.82 4151.61 3074.2 4141.15 3071.59 4130.96H3071.07C3068.45 4141.15 3065.84 4152.13 3062.18 4162.85L3044.93 4213.82H3098.25ZM3040.22 4231.59L3021.93 4287H2998.4L3058.52 4110.84H3085.7L3145.82 4287H3121.51L3102.69 4231.59H3040.22Z" fill="white"/>
<path d="M3259.78 4269.23C3265.53 4270.01 3273.89 4270.27 3282.78 4270.27C3331.66 4270.27 3357.79 4243.09 3357.79 4195.52C3358.06 4153.96 3334.53 4127.56 3286.44 4127.56C3274.68 4127.56 3265.79 4128.61 3259.78 4129.92V4269.23ZM3237.04 4113.45C3250.89 4111.1 3267.36 4109.53 3285.39 4109.53C3318.06 4109.53 3341.33 4117.37 3356.75 4131.48C3372.69 4145.86 3381.84 4166.25 3381.84 4194.74C3381.84 4223.49 3372.69 4247.01 3356.49 4263.22C3339.76 4279.68 3312.58 4288.57 3278.34 4288.57C3261.87 4288.57 3248.54 4287.79 3237.04 4286.48V4113.45Z" fill="white"/>
<path d="M3499.19 4287H3476.19V4110.84H3499.19V4287Z" fill="white"/>
<path d="M3604.27 4287V4110.84H3629.36L3685.55 4199.96C3698.36 4220.61 3708.82 4239.17 3716.92 4257.21L3717.7 4256.94C3715.61 4233.42 3715.09 4211.99 3715.09 4184.54V4110.84H3736.52V4287H3713.52L3657.59 4197.61C3645.3 4178.01 3633.54 4157.88 3624.92 4138.8L3624.13 4139.06C3625.44 4161.28 3625.7 4182.45 3625.7 4211.73V4287H3604.27Z" fill="white"/>
<path d="M3959.47 4259.3C3969.66 4265.83 3984.3 4270.8 3999.98 4270.8C4023.25 4270.8 4036.84 4258.51 4036.84 4240.74C4036.84 4224.53 4027.43 4214.86 4003.64 4205.98C3974.89 4195.52 3957.12 4180.36 3957.12 4155.79C3957.12 4128.35 3979.86 4107.96 4014.1 4107.96C4031.87 4107.96 4045.2 4112.14 4052.78 4116.59L4046.51 4135.14C4041.02 4131.75 4029.26 4126.78 4013.31 4126.78C3989.27 4126.78 3980.12 4141.15 3980.12 4153.18C3980.12 4169.64 3990.84 4177.75 4015.14 4187.16C4044.94 4198.66 4059.84 4213.03 4059.84 4238.91C4059.84 4266.09 4039.97 4289.88 3998.42 4289.88C3981.43 4289.88 3962.87 4284.65 3953.46 4278.38L3959.47 4259.3Z" fill="white"/>
<path d="M4243.06 4213.82L4225.55 4163.11C4221.63 4151.61 4219.02 4141.15 4216.4 4130.96H4215.88C4213.27 4141.15 4210.65 4152.13 4206.99 4162.85L4189.74 4213.82H4243.06ZM4185.04 4231.59L4166.74 4287H4143.22L4203.33 4110.84H4230.52L4290.63 4287H4266.33L4247.51 4231.59H4185.04Z" fill="white"/>
<path d="M4432.04 4070.84C4433.34 4076.86 4438.05 4083.65 4450.86 4083.65C4463.4 4083.65 4468.37 4077.64 4469.68 4070.84H4483.01C4482.48 4086.27 4472.81 4098.55 4450.33 4098.55C4428.38 4098.55 4418.97 4086.53 4418.45 4070.84H4432.04ZM4512.28 4279.16C4502.09 4283.08 4481.7 4288.83 4457.91 4288.83C4431.25 4288.83 4409.3 4282.04 4392.05 4265.57C4376.89 4250.93 4367.48 4227.41 4367.48 4199.96C4367.48 4147.43 4403.81 4109.01 4462.88 4109.01C4483.27 4109.01 4499.47 4113.45 4507.05 4117.11L4501.3 4135.67C4491.89 4131.22 4480.13 4128.09 4462.36 4128.09C4419.49 4128.09 4391.52 4154.75 4391.52 4198.92C4391.52 4243.61 4418.18 4270.01 4459.48 4270.01C4474.38 4270.01 4484.57 4267.92 4489.8 4265.31V4212.77H4454.25V4194.48H4512.28V4279.16Z" fill="white"/>
<path d="M4611.86 4110.84H4634.86V4267.92H4710.14V4287H4611.86V4110.84Z" fill="white"/>
<path d="M4823.57 4287H4800.57V4110.84H4823.57V4287Z" fill="white"/>
<path d="M4982.75 4070.84C4984.06 4076.86 4988.76 4083.65 5001.57 4083.65C5014.12 4083.65 5019.08 4077.64 5020.39 4070.84H5033.72C5033.2 4086.27 5023.52 4098.55 5001.05 4098.55C4979.09 4098.55 4969.68 4086.53 4969.16 4070.84H4982.75ZM5062.99 4279.16C5052.8 4283.08 5032.41 4288.83 5008.63 4288.83C4981.97 4288.83 4960.01 4282.04 4942.76 4265.57C4927.6 4250.93 4918.19 4227.41 4918.19 4199.96C4918.19 4147.43 4954.52 4109.01 5013.59 4109.01C5033.98 4109.01 5050.18 4113.45 5057.76 4117.11L5052.01 4135.67C5042.6 4131.22 5030.84 4128.09 5013.07 4128.09C4970.2 4128.09 4942.24 4154.75 4942.24 4198.92C4942.24 4243.61 4968.9 4270.01 5010.19 4270.01C5025.09 4270.01 5035.29 4267.92 5040.51 4265.31V4212.77H5004.97V4194.48H5062.99V4279.16Z" fill="white"/>
<path d="M5185.58 4287H5162.57V4110.84H5185.58V4287Z" fill="white"/>
<path d="M5440.68 4287L5382.91 4110.84H5407.74L5435.19 4197.61C5442.51 4221.4 5449.04 4242.83 5454.01 4263.48H5454.53C5459.5 4243.09 5466.55 4220.87 5474.66 4197.87L5504.45 4110.84H5528.76L5465.77 4287H5440.68Z" fill="white"/>
<path d="M5704.14 4204.41H5635.92V4267.92H5712.25V4287H5612.92V4110.84H5708.33V4129.92H5635.92V4185.59H5704.14V4204.41Z" fill="white"/>
<path d="M6062.22 4279.16C6052.03 4283.08 6031.64 4288.83 6007.86 4288.83C5981.2 4288.83 5959.24 4282.04 5941.99 4265.57C5926.83 4250.93 5917.42 4227.41 5917.42 4199.96C5917.42 4147.43 5953.75 4109 6012.82 4109C6033.21 4109 6049.42 4113.45 6057 4117.11L6051.25 4135.67C6041.84 4131.22 6030.07 4128.09 6012.3 4128.09C5969.44 4128.09 5941.47 4154.75 5941.47 4198.92C5941.47 4243.61 5968.13 4270.01 6009.43 4270.01C6024.32 4270.01 6034.52 4267.92 6039.75 4265.31V4212.77H6004.2V4194.48H6062.22V4279.16Z" fill="white"/>
<path d="M6253.03 4204.41H6184.81V4267.92H6261.13V4287H6161.81V4110.84H6257.21V4129.92H6184.81V4185.59H6253.03V4204.41Z" fill="white"/>
<path d="M6378.75 4269.75C6383.45 4270.54 6389.72 4270.8 6397.83 4270.8C6421.35 4270.8 6443.04 4262.17 6443.04 4236.56C6443.04 4212.77 6422.39 4202.58 6397.56 4202.58H6378.75V4269.75ZM6378.75 4185.59H6399.39C6423.18 4185.59 6437.29 4172.78 6437.29 4155.79C6437.29 4135.4 6421.87 4127.04 6398.87 4127.04C6388.42 4127.04 6382.4 4127.82 6378.75 4128.61V4185.59ZM6356.01 4113.45C6365.94 4111.1 6381.88 4109.53 6397.56 4109.53C6420.3 4109.53 6434.94 4113.45 6445.66 4122.34C6454.81 4129.13 6460.56 4139.59 6460.56 4153.44C6460.56 4170.69 6449.05 4185.59 6430.76 4192.12V4192.91C6447.49 4196.83 6467.09 4210.68 6467.09 4236.82C6467.09 4251.98 6461.08 4263.74 6451.93 4272.1C6439.91 4283.34 6420.04 4288.57 6391.29 4288.57C6375.61 4288.57 6363.59 4287.52 6356.01 4286.48V4113.45Z" fill="white"/>
<path d="M6653.97 4204.41H6585.75V4267.92H6662.07V4287H6562.75V4110.84H6658.15V4129.92H6585.75V4185.59H6653.97V4204.41Z" fill="white"/>
<path d="M6756.69 4110.84H6779.69V4267.92H6854.97V4287H6756.69V4110.84Z" fill="white"/>
<path d="M6968.4 4287H6945.4V4110.84H6968.4V4287Z" fill="white"/>
<path d="M7073.47 4110.84H7096.21V4195.78H7097C7101.7 4188.99 7106.41 4182.71 7110.85 4176.96L7164.69 4110.84H7192.92L7129.14 4185.59L7197.89 4287H7170.97L7113.2 4200.49L7096.21 4219.83V4287H7073.47V4110.84Z" fill="white"/>
</g>
</g>
<defs>
<clipPath id="clip0_147_2">
<rect width="10000" height="6666.67" fill="white"/>
</clipPath>
</defs>
</svg>
